<?xml version="1.0" encoding="UTF-8" standalone="no"?>
<!-- Created with Inkscape (http://www.inkscape.org/) -->
<svg xmlns:dc="http://purl.org/dc/elements/1.1/" xmlns:cc="http://creativecommons.org/ns#" xmlns:rdf="http://www.w3.org/1999/02/22-rdf-syntax-ns#" xmlns:svg="http://www.w3.org/2000/svg" xmlns="http://www.w3.org/2000/svg" xmlns:sodipodi="http://sodipodi.sourceforge.net/DTD/sodipodi-0.dtd" xmlns:inkscape="http://www.inkscape.org/namespaces/inkscape" id="svg2" xml:space="preserve" height="744.94" viewBox="0 0 2942.0684 744.93829" width="2942.1" version="1.1" inkscape:version="0.91 r13725" sodipodi:docname="Ballpark.svg">
  <defs id="defs242"/>
  <sodipodi:namedview pagecolor="#ffffff" bordercolor="#666666" borderopacity="1" objecttolerance="10" gridtolerance="10" guidetolerance="10" inkscape:pageopacity="0" inkscape:pageshadow="2" inkscape:window-width="1536" inkscape:window-height="811" id="namedview240" showgrid="false" inkscape:zoom="0.27687264" inkscape:cx="1654.7549" inkscape:cy="621.48049" inkscape:window-x="-8" inkscape:window-y="-8" inkscape:window-maximized="1" inkscape:current-layer="svg2"/>
  <metadata id="metadata8">
    <rdf:RDF>
      <cc:Work rdf:about="">
        <dc:format>image/svg+xml</dc:format>
        <dc:type rdf:resource="http://purl.org/dc/dcmitype/StillImage"/>
        <dc:title/>
      </cc:Work>
    </rdf:RDF>
  </metadata>
  <g id="g3831"><path id="path4055" d="m 0.95,733.39 2540.6,-12.269 399.81,23.094 -2.5988,-277.99 0,-465.53 -2938.1,16.556 0.2625,36.462 -0.0218,195.79 0.16612,166.35 -0.0641,145.24 z" inkscape:connector-curvature="0" style="fill:#79a659;fill-rule:evenodd"/><path id="path3522" d="m 2067.83,449.59 44.023,-0.40463 -0.2364,-99.845 -20.267,0.15309 -0.8563,-72.366 -142.78,0.91855 0,72.464 -20.106,-0.0536 0.4274,99.654 44.475,0.34733 0.6661,131.95 c 0.014,2.0917 -1.5662,3.4491 -3.1339,3.4641 l -400.32,3.8162 c -2.5705,0.0245 -6.0041,-2.4129 -6.085,-6.708 l -0.1813,-9.6268 c -0.047,-2.4382 1.6062,-5.0913 4.6733,-5.0817 l 3.0593,0.0109 -0.3681,-109.04 18.329,-0.0289 -0.2364,-99.845 -20.267,0.1531 -0.8564,-72.366 -142.78,0.91855 0,72.464 -20.106,-0.0536 0.4274,99.654 18.324,-0.0123 0.4302,107.09 6.0891,-0.007 c 3.6946,-0.004 6.3447,4.4539 6.4072,7.1727 l 0.073,9.2679 c 0.023,3.0559 -3.2656,7.6145 -7.041,7.6327 l -388.18,1.4928 c -19.5,0.0751 -16.783,-1.7963 -16.856,-15.705 l -1.7142,-326.51 -143.51,0.71734 1.0112,260.97 31.258,0.25445 1.0644,64.143 c 0.16475,9.9243 2.5641,17.091 -10.87,17.156 l -414,2.0107 c -10.213,0.0496 -13.034,-4.382 -13.075,-13.994 l -1.3942,-326.84 -143.8,1.1511 1.3176,259.92 30.81,0.0489 0.78626,65.874 c 0.12681,10.63 -2.0946,14.453 -8.6907,14.485 l -154.55,0.75 c -33.212,0.17 -77.494,-34.71 -77.364,-76.75 l 1.3321,-431.26 c 0.0374,-12.121 3.8697,-24.16 10.623,-36.24 13.421,-21.496 34.043,-30.497 56.222,-36.795 l -189.36,1.0671 0.2625,36.462 c 9.2617,16.71 10.883,26.889 10.97,36.373 l 1.1547,127.02 c 0.10901,11.997 -3.9706,23.122 -12.146,32.402 l 0.16611,166.35 c 10.17,15.968 12.775,26.456 12.846,35.074 l 0.5621,68.733 c 0.12832,15.691 -5.103,29.919 -13.472,41.437 l -0.0802,172.3 176.23,-0.57734 -0.14433,-23.703 c -0.04,-6.5579 7.2317,-12.491 13.011,-12.525 l 72.942,-0.43301 c 9.0771,-0.054 13.17,6.5577 13.351,12.485 l 0,23.599 891.85996,-4.9847 -0.097,-24.292 c -0.042,-10.655 6.1623,-13.096 12.451,-13.166 l 73.28,-0.40824 c 7.8002,-0.0434 12.505,5.3268 12.554,11.329 l 0.2041,25.468 486.9,-1.9938 0.085,-25.503 c 0.022,-6.5321 5.4628,-10.567 11.047,-10.614 l 74.017,-0.62474 c 8.3481,-0.0704 14.667,7.0872 14.799,14.136 l 0.3062,21.79 4.3886,0 -0.299,-24.55 c -0.104,-8.5276 5.4142,-12.445 12.546,-12.498 l 75.643,-0.56398 c 5.4108,-0.0404 10.714,6.8996 10.681,10.825 l -0.2165,26.053 388.12,-1.299 -0.052,-26.537 c -0.014,-5.7018 5.3208,-9.3793 9.8301,-9.3969 l 78.249,-0.30618 c 6.2111,-0.0244 12.587,6.2041 12.656,13.625 l 0.2041,22.096 96.06,0.30174 0,-19.485 c 0,-9.4058 8.5803,-16.411 16.96,-16.454 l 194.7,-1.002 c 42.785,-0.22019 64.92,-16.498 93.08,-21.637 22.531,-4.1121 41.879,4.824 58.24,14.866 31.594,25.203 35.081,46.136 36.837,66.806 l -2.5988,-277.99 c -5.751,53.08 -34.572,80.318 -78.701,83.746 -16.411,1.2749 -35.22,2.1393 -54.807,14.595 -17.692,11.25 -36.947,20.381 -61.237,20.412 l -139.86,0.17936 c -3.8834,0.005 -7.5923,-2.153 -7.6,-7.5525 l -0.014,-9.5658 c 0,-4.0548 3.7335,-7.8441 7.6071,-7.9031 l 16.779,0.0959 -0.3361,-107 18.329,-0.0289 -0.2363,-99.845 -20.267,0.1531 -0.8563,-72.366 -142.78,0.91855 0,72.464 -20.106,-0.0536 0.4274,99.654 18.324,-0.0123 0.4303,106.51 16.022,0.14434 c 5.0788,0.0457 8.1324,3.2984 8.191,7.1086 l 0.1716,11.161 c 0.068,4.4529 -4.6219,7.1163 -7.7606,7.125 l -417.76,1.1531 c -2.1562,0.005 -3.8431,-1.4403 -3.8757,-4.5294 z" inkscape:connector-curvature="0" style="fill:#666666;fill-rule:evenodd;stroke:#000000;stroke-width:0.2"/><path id="path3523" d="m 1229.43,535.55 -3.887,0.0488 0.1463,-22.243 -9.0731,-0.0975 -0.097,-70.145 -16.878,0.19513 0.2926,-54.633 16.682,-0.0975 0,-103.12 -45.365,-0.19512 -0.683,-18.244 18.926,1.9512 26.731,-0.19511 0.1598,-218.56 -78.988,0.0236 0.483,49.094 -26.076,-0.13798 -0.4139,-48.565 -93.543,0.82782 0.1381,27.87 -19.04001,0.55188 -0.27595,-17.108 2.62136,0 -0.138,-11.313 -212.61,0.62085 0.41391,40.701 -26.559,-0.27594 -0.069,-40.356 -83.299,0.31043 0.91415,238.56 52.096,0 0.19512,15.707 -52.389,0.39025 0.4878,84.291 2.6341,0 0.58002,54.439 -2.8284,0 0.069,15.935 54.705,-0.20695 0,16.556 -38.493,0 0.70033,116.69 -16.878,0.0813 0.173,-54.198 -7.2434,-0.20696 -0.44254,-23.528 7.7072,0 -0.19511,-39.17 -16.926,0.14634 0.0612,-29.853 -13.383,0.0345 -0.48273,-54.472 13.797,-0.0948 0.0566,-103.9 -43.121,0.0975 0,-21.073 15.024,0.0975 -0.0364,4.1957 27.939,0.27594 0,-220.61 -75.4,0.13796 0.13797,51.256 -26.697,-0.20696 0.25347,-50.602 -98.108,0.55361 0.40283,29.934 -17.27,0.17823 0.53822,-30.226 -208.39,0.73169 0.0661,47.638 -26.283,0.069 -0.319,-47.268 -57.973,0.28909 c -10.844,14.013 -12.888,29.456 -12.806,46.149 l 0.87804,178.09 21.317,0 19.171,0.026 -0.48289,16.418 -39.942,-0.13797 0.23002,101.11 7.1513,-0.11229 0.58022,54.16 -7.195,0.0244 -0.14574,19.491 43.218,-0.004 0,29.951 -20.585,0 -0.19512,-13.073 -43.879,-0.59264 1.2214,-395.42 c 0.38878,-19.081 6.7672,-36.142 19.757,-49.97 9.6416,-10.263 23.906,-18.498 47.093,-25.051 l 2748.90003,-15.51 0,461 c 0,28.054 -14.367,63.099 -43.519,78.786 l -0.507,-60.34 -64.023,0.93187 -0.3902,-51.901 63.608,-0.58536 -2.1611,-147.12 -70.502,0.82782 -0.4139,-27.732 70.778,-0.68984 -2.3455,-179.84 c -0.2559,-19.629 -15.906,-29.889 -30.476,-29.823 l -126.19,0.57533 0.9218,84.886 -27.902,0.19512 0.014,-84.461 -97.268,0.20696 -0.1027,65.553 -16.416,-0.011 -0.071,-17.234 -0.097,-48.052 -207.41,0.29268 0.097,85.071 -27.512,0.19511 -0.3901,-85.071 -69.497,-0.0533 -0.063,211.37 8.6828,0 -0.1464,26.975 -8.0486,0.0975 -0.081,155.95 -0.018,35.123 6.9754,0 0.6335,110.9 -16.682,0.046 -4e-4,-59.922 -5.1219,-0.14633 -0.634,-32.536 -1.4635,-0.19513 -0.4535,-93.901 -18.419,-0.13798 -22.51,-0.86418 0,-19.046 41.09,-0.19513 0,-62.877 -34.66,-0.007 0,-19.784 18.172,2.3762 16.292,0.4878 -0.2439,-253.56 -64.389,0.19512 0.4878,80.73 -26.536,0.39023 -0.3414,-81.12 -97.608,0.4878 -0.048,61.272 -16.108,0.0379 -0.4079,-61.316 -208.54,0.68985 0.2807,81.461 -26.243,0 -0.3203,-81.461 -66.8,0.24293 0.9889,258.1 16.763,0.13796 19.412,0.0449 0,16.341 -36.14,-0.14634 0.8613,58.816 45.383,0.13797 0,16.901 -45.59,-0.68986 0.414,105.75 0.2687,84.37 -16.07,0.15318 -0.6331,-113.54 -0.1952,-29.268 -0.5853,-155.7 -0.1698,-32.422 -1.0497,-209.08 -63.316,0.14635 0.1464,92.096 -27.414,0.19511 -0.1853,-91.962 -97.276,0.50009 0.2852,67.53 -16.672,0.0882 -0.093,-16.619 0.1724,-50.983 -208.27,0.51928 0.5853,88.193 -27.707,0.0975 0.053,-88.017 -74.979,0.31131 -0.049,213.85 5.2194,-0.0487 0.4792,27.472 -5.3808,0 -0.074,147.11 5.4145,0.0487 0,53.804 6.7803,0 0.8479,99.89 -16.624,0.0801 0,-56.703" inkscape:connector-curvature="0" style="fill:#ffffff;fill-rule:evenodd;stroke:#000000;stroke-width:0.2"/><path id="path4324" d="m 1193.73,576.39 -169.13,0.68984 -1.7142,-326.51 -143.51,0.71734 1.0112,260.97 31.258,0.25445 1.0644,64.143 -170.28,2.1844 0.20558,-64.194 -5.4445,0.1238 -0.41953,-60.37 2.0997,-0.0975 -1.1707,-130.33 -4.6722,0 0,-101.41 24.46,-0.19511 -0.39023,-91.178 107.65,-1.5609 0,-55.952 64.389,0 0,-8.5826 69.562,-0.12969 0.24062,14.92 19.03996,-0.55188 17.887,-0.0759 0.8583,48.97 105.48,-0.27594 0.2759,92.868 25.007,-0.55188 1.5929,99.546 -1.0962,61.398 16.001,-0.82897 0.1535,71.736 -16.269,0.0327 0.031,58.768 25.173,-0.10243 z" inkscape:connector-curvature="0" style="fill:#f5f5dc;fill-rule:evenodd;stroke:#000000;stroke-width:0.2"/><path id="path3525" d="m 644.18,580.81 -169.13,0.68985 -1.7142,-326.51 -143.51,0.71734 1.0112,260.97 31.258,0.25445 1.0644,64.143 -170.28,2.1844 0.20558,-64.194 -5.4445,0.1238 -0.41952,-60.37 2.0997,-0.0975 -1.1707,-130.33 -4.6723,0 0,-101.41 24.46,-0.19511 -0.39023,-91.178 107.65,-1.5609 0,-55.952 64.389,0 0,-8.5826 69.562,-0.12969 0.24061,14.92 19.04,-0.55188 17.887,-0.0759 0.85825,48.97 105.48,-0.27594 0.27595,92.868 25.007,-0.55188 1.593,99.546 -1.0963,61.398 16.001,-0.82897 0.15352,71.736 -16.269,0.0327 0.0315,58.768 25.173,-0.10244 z" inkscape:connector-curvature="0" style="fill:#f5f5dc;fill-rule:evenodd;stroke:#000000;stroke-width:0.2"/><path id="OL_001_35_9_4" d="m 2351.93,253.4 0,-93.025 110.96,0 0.1246,18.062 11.498,-0.0633 0.4026,74.197 z" inkscape:connector-curvature="0" style="fill:#f5f5dc;fill-rule:evenodd;stroke:#000000;stroke-width:0.2" class="land"/><path id="OL_001_35_9_6" d="m 2629.63,158.973 109.95,0 0,90.937 -122.12,1.164 0.084,-73.643 12.107,-0.0303 z" inkscape:connector-curvature="0" style="fill:#f5f5dc;fill-rule:evenodd;stroke:#000000;stroke-width:0.2" class="land"/><path id="OL_001_35_9_7" d="m 2739.63,249.909 23.627,0 0,102.47 -6.43,0 -118.09,0.97374 -20.267,0.15309 -0.8563,-72.366 -0.1096,-30.067 z" inkscape:connector-curvature="0" style="fill:#f5f5dc;fill-rule:evenodd;stroke:#000000;stroke-width:0.2" class="land"/><path id="OL_001_35_9_9" d="m 2756.83,453.73 7.7056,0 0,120.43 -143.33,0 -0.2189,-13.928 -0.3361,-107 18.329,-0.0289 z" inkscape:connector-curvature="0" style="fill:#f5f5dc;fill-rule:evenodd;stroke:#000000;stroke-width:0.2" class="land"/><path id="OL_001_35_9_8" d="m 2638.93,453.2 -0.2363,-99.845 118.09,-0.97374 0,101.35 z" inkscape:connector-curvature="0" style="fill:#f5f5dc;fill-rule:evenodd;stroke:#000000;stroke-width:0.2" class="land"/><path id="OL_001_35_9_5" d="m 2617.63,281.14 -142.78,0.91855 -0.3048,-103.69 -11.498,0.0633 -0.1246,-18.062 -3.215,0 0,-57.332 63.009,0 0,-9.1345 69.195,0 0.071,17.234 39.702,0.0281 0,47.802 -1.9903,0 0.021,18.427 -12.107,0.0303 z" inkscape:connector-curvature="0" style="fill:#f5f5dc;fill-rule:evenodd;stroke:#000000;stroke-width:0.2" class="land"/><path id="OL_001_35_9_3" d="m 2474.83,282.059 0,72.464 -20.106,-0.0535 -116.55,-0.0486 -10.104,0 0,-101.02 23.874,0 122.99,-0.82906 z" inkscape:connector-curvature="0" style="fill:#f5f5dc;fill-rule:evenodd;stroke:#000000;stroke-width:0.2" class="land"/><path id="OL_001_35_9_2" d="m 2454.73,354.47 0.4274,99.654 -116.98,1.7463 0,-101.45 z" inkscape:connector-curvature="0" style="fill:#f5f5dc;fill-rule:evenodd;stroke:#000000;stroke-width:0.2" class="land"/><path id="OL_001_35_9_1" d="m 2455.13,454.12 18.324,-0.0123 0.4303,106.51 0,15.3 -145.02,0 0,-120.05 9.2876,0 z" inkscape:connector-curvature="0" style="fill:#f5f5dc;fill-rule:evenodd;stroke:#000000;stroke-width:0.2" class="land"/><path id="OL_001_35_8_5" d="m 1824.83,249.389 0,-93.025 110.96,0 0.1246,18.062 11.498,-0.0633 0.4026,74.197 z" inkscape:connector-curvature="0" style="fill:#f5f5dc;fill-rule:evenodd;stroke:#000000;stroke-width:0.2" class="land"/><path id="OL_001_35_8_7" d="m 2102.53,154.962 109.95,0 0,90.937 -122.12,1.164 0.083,-73.643 12.107,-0.0303 z" inkscape:connector-curvature="0" style="fill:#f5f5dc;fill-rule:evenodd;stroke:#000000;stroke-width:0.2" class="land"/><path id="OL_001_35_8_8" d="m 2212.53,245.899 23.627,0 0,102.47 -6.43,0 -118.09,0.97374 -20.267,0.15309 -0.8563,-72.366 -0.1096,-30.067 z" inkscape:connector-curvature="0" style="fill:#f5f5dc;fill-rule:evenodd;stroke:#000000;stroke-width:0.2" class="land"/><path id="OL_001_35_8_11" d="m 2237.43,514.14 0,64.087 -168.52,0.14382 -0.2189,-13.928 -0.3695,-50.709 z" inkscape:connector-curvature="0" style="fill:#f5f5dc;fill-rule:evenodd;stroke:#000000;stroke-width:0.2" class="land"/><path id="OL_001_35_8_10" d="m 2068.33,513.74 -0.4676,-64.145 44.023,-0.40463 117.85,0.52777 7.7056,0 0,64.428 z" inkscape:connector-curvature="0" style="fill:#f5f5dc;fill-rule:evenodd;stroke:#000000;stroke-width:0.2" class="land"/><path id="OL_001_35_8_9" d="m 2111.83,449.19 -0.2364,-99.845 118.09,-0.97374 0,101.35 z" inkscape:connector-curvature="0" style="fill:#f5f5dc;fill-rule:evenodd;stroke:#000000;stroke-width:0.2" class="land"/><path id="OL_001_35_8_6" d="m 2090.53,277.13 -142.78,0.91855 -0.3048,-103.69 -11.498,0.0633 -0.1246,-18.062 -3.215,0 0,-57.332 63.009,0 0,-9.1345 70.101,0 0.1355,18.536 38.731,-0.0913 0,46.619 -1.9902,0 0.02,18.427 -12.107,0.0303 z" inkscape:connector-curvature="0" style="fill:#f5f5dc;fill-rule:evenodd;stroke:#000000;stroke-width:0.2" class="land"/><path id="OL_001_35_8_4" d="m 1947.73,278.048 0,72.464 -20.106,-0.0536 -116.55,-0.0486 -10.104,0 0,-101.02 23.875,0 122.99,-0.82906 z" inkscape:connector-curvature="0" style="fill:#f5f5dc;fill-rule:evenodd;stroke:#000000;stroke-width:0.2" class="land"/><path id="OL_001_35_8_3" d="m 1927.63,350.46 0.4274,99.654 -116.98,1.7463 0,-101.45 z" inkscape:connector-curvature="0" style="fill:#f5f5dc;fill-rule:evenodd;stroke:#000000;stroke-width:0.2" class="land"/><path id="OL_001_35_8_1" d="m 1972.73,515.59 0.1672,41.383 0,20.64 -171.17,-0.35965 0,-61.42 z" inkscape:connector-curvature="0" style="fill:#f5f5dc;fill-rule:evenodd;stroke:#000000;stroke-width:0.2" class="land"/><path id="OL_001_35_8_2" d="m 1801.73,515.83 0,-63.971 9.2876,0 116.98,-1.7463 44.475,0.34733 0.2631,65.126 z" inkscape:connector-curvature="0" style="fill:#f5f5dc;fill-rule:evenodd;stroke:#000000;stroke-width:0.2" class="land"/><path id="OL_001_35_7_4" d="m 1302.13,259.421 0,-93.025 110.96,0 0.1246,18.062 11.498,-0.0633 0.4026,74.197 z" inkscape:connector-curvature="0" style="fill:#f5f5dc;fill-rule:evenodd;stroke:#000000;stroke-width:0.2" class="land"/><path id="OL_001_35_7_6" d="m 1579.83,164.994 109.95,0 0,90.937 -122.12,1.164 0.084,-73.643 12.107,-0.0303 z" inkscape:connector-curvature="0" style="fill:#f5f5dc;fill-rule:evenodd;stroke:#000000;stroke-width:0.2" class="land"/><path id="OL_001_35_7_7" d="m 1689.83,255.931 23.627,0 0,102.47 -6.4299,0 -118.09,0.97373 -20.267,0.1531 -0.8564,-72.366 -0.1095,-30.067 z" inkscape:connector-curvature="0" style="fill:#f5f5dc;fill-rule:evenodd;stroke:#000000;stroke-width:0.2" class="land"/><path id="OL_001_35_7_9" d="m 1707.03,459.75 7.7056,0 0,120.43 -143.33,0 -0.219,-13.928 -0.336,-107 18.329,-0.0289 z" inkscape:connector-curvature="0" style="fill:#f5f5dc;fill-rule:evenodd;stroke:#000000;stroke-width:0.2" class="land"/><path id="OL_001_35_7_8" d="m 1589.13,459.22 -0.2364,-99.845 118.09,-0.97373 0,101.35 z" inkscape:connector-curvature="0" style="fill:#f5f5dc;fill-rule:evenodd;stroke:#000000;stroke-width:0.2" class="land"/><path id="OL_001_35_7_5" d="m 1567.73,287.161 -142.78,0.91855 -0.3048,-103.69 -11.498,0.0633 -0.1246,-18.062 -3.215,0 0,-57.332 63.009,0 0,-9.1345 70.051,0 0.093,16.619 38.824,-0.20538 0,48.651 -1.9902,0 0.021,18.427 -12.107,0.0303 z" inkscape:connector-curvature="0" style="fill:#f5f5dc;fill-rule:evenodd;stroke:#000000;stroke-width:0.2" class="land"/><path id="OL_001_35_7_3" d="m 1425.03,288.08 0,72.464 -20.106,-0.0536 -116.55,-0.0486 -10.104,0 0,-101.02 23.875,0 122.99,-0.82906 z" inkscape:connector-curvature="0" style="fill:#f5f5dc;fill-rule:evenodd;stroke:#000000;stroke-width:0.2" class="land"/><path id="OL_001_35_7_2" d="m 1404.93,360.49 0.4274,99.654 -116.98,1.7463 0,-101.45 z" inkscape:connector-curvature="0" style="fill:#f5f5dc;fill-rule:evenodd;stroke:#000000;stroke-width:0.2" class="land"/><path id="OL_001_35_7_1" d="m 1405.33,460.14 18.324,-0.0123 0.4302,106.51 0,15.3 -145.02,0 0,-120.05 9.2876,0 z" inkscape:connector-curvature="0" style="fill:#f5f5dc;fill-rule:evenodd;stroke:#000000;stroke-width:0.2" class="land"/><path id="IL_001_35_9_4" d="m 2354.33,250.944 c 39.359,-0.27639 78.718,-0.55279 118.08,-0.82917 -0.1342,-23.096 -0.2694,-46.191 -0.404,-69.287 -3.8328,0.0211 -7.6657,0.0444 -11.499,0.0642 -0.04,-6.0209 -0.082,-12.042 -0.1233,-18.063 l -106.05,0 0,88.114 z" inkscape:connector-curvature="0" style="fill:#d3f6d4;fill-rule:evenodd;stroke:#000000;stroke-width:0.2" class="land"/><path id="IL_001_35_9_6" d="m 2632.13,177.399 c -0.3344,2.0382 -2.7545,2.8348 -4.5631,2.4688 -2.5142,0.007 -5.0285,0.0123 -7.5427,0.0188 -0.027,22.904 -0.055,45.808 -0.084,68.712 39.07,-0.3816 78.14,-0.76319 117.21,-1.1448 l 0,-86.025 -105.04,0 c 0.014,5.3236 0.014,10.647 0.022,15.971 z" inkscape:connector-curvature="0" style="fill:#d3f6d4;fill-rule:evenodd;stroke:#000000;stroke-width:0.2" class="land"/><path id="IL_001_35_9_7" d="m 2742.63,252.373 c -40.908,0.38516 -81.815,0.77033 -122.72,1.1555 0.2084,32.508 0.5794,65.015 0.9201,97.521 46.649,-0.37999 93.299,-0.74465 139.95,-1.094 -0.014,-32.53 -0.014,-65.061 -0.022,-97.591 -6.0413,0.003 -12.083,0.006 -18.124,0.008 z" inkscape:connector-curvature="0" style="fill:#d3f6d4;fill-rule:evenodd;stroke:#000000;stroke-width:0.2" class="land"/><path id="IL_001_35_9_9" d="m 2623.23,510.7 c 0.1028,20.334 0.1867,40.669 0.3665,61.003 l 138.44,0 0,-115.52 c -46.325,-0.17976 -92.65,-0.3456 -138.97,-0.4975 0.057,18.339 0.1136,36.678 0.1711,55.017 z" inkscape:connector-curvature="0" style="fill:#d3f6d4;fill-rule:evenodd;stroke:#000000;stroke-width:0.2" class="land"/><path id="IL_001_35_9_8" d="m 2641.13,355.81 c 0.078,31.645 0.157,63.29 0.2354,94.935 37.647,0.17565 75.294,0.35128 112.94,0.52693 l 0,-96.435 c -37.726,0.32453 -75.451,0.64907 -113.18,0.97361 z" inkscape:connector-curvature="0" style="fill:#d3f6d4;fill-rule:evenodd;stroke:#000000;stroke-width:0.2" class="land"/><path id="IL_001_35_9_5" d="m 2525.13,102.635 c 0.1177,1.9177 -2.0501,3.1226 -3.7773,2.912 -19.557,-0.0913 -39.115,-0.0181 -58.673,-0.0472 -1.0621,-0.2396 -0.3421,1.3033 -0.5509,1.9172 l 0,50.503 3.215,0 c 0.04,6.0209 0.082,12.042 0.1232,18.063 3.8329,-0.0211 7.6658,-0.0444 11.499,-0.0642 0.1013,34.562 0.2034,69.124 0.3048,103.69 45.958,-0.30669 91.915,-0.6134 137.87,-0.92011 -0.014,-34.569 -0.017,-69.139 -0.025,-103.71 4.0354,-0.01 8.0707,-0.0215 12.106,-0.032 -0.014,-5.8158 -0.014,-11.632 -0.022,-17.447 0.5356,-0.52492 1.2428,-0.88136 1.99,-0.9629 l 0,-42.906 c -13.234,-0.01 -26.468,-0.0199 -39.701,-0.0294 -0.023,-5.7445 -0.051,-11.489 -0.075,-17.233 l -64.288,0 0,6.2696 z" inkscape:connector-curvature="0" style="fill:#d3f6d4;fill-rule:evenodd;stroke:#000000;stroke-width:0.2" class="land"/><path id="IL_001_35_9_3" d="m 2351.93,255.855 -21.419,0 0,96.109 c 47.284,0.0338 94.568,0.0678 141.85,0.10161 0.016,-32.347 0,-64.693 0.099,-97.04 -40.177,0.27639 -80.355,0.55277 -120.53,0.82918 z" inkscape:connector-curvature="0" style="fill:#d3f6d4;fill-rule:evenodd;stroke:#000000;stroke-width:0.2" class="land"/><path id="IL_001_35_9_2" d="m 2340.63,453.37 c 37.357,-0.55011 74.715,-1.1002 112.07,-1.6503 -0.1427,-31.598 -0.2854,-63.195 -0.4279,-94.793 -37.215,-0.016 -74.43,-0.032 -111.64,-0.0482 l 0,96.492 z" inkscape:connector-curvature="0" style="fill:#d3f6d4;fill-rule:evenodd;stroke:#000000;stroke-width:0.2" class="land"/><path id="IL_001_35_9_1" d="m 2455.13,456.58 c -41.283,0.5976 -82.565,1.2172 -123.85,1.7118 0,38.391 -0.014,76.781 -0.014,115.17 l 140.11,0 -0.4305,-116.9 c -5.2737,0.004 -10.548,0.01 -15.821,0.0137 z" inkscape:connector-curvature="0" style="fill:#d3f6d4;fill-rule:evenodd;stroke:#000000;stroke-width:0.2" class="land"/><path id="IL_001_35_8_5" d="m 1827.23,246.935 c 39.359,-0.2764 78.718,-0.55279 118.08,-0.82917 -0.1342,-23.096 -0.2675,-46.191 -0.4011,-69.287 -3.833,0.0211 -7.6659,0.0444 -11.499,0.0642 -0.04,-6.0209 -0.083,-12.042 -0.126,-18.063 l -106.05,0 0,88.114 z" inkscape:connector-curvature="0" style="fill:#d3f6d4;fill-rule:evenodd;stroke:#000000;stroke-width:0.2" class="land"/><path id="IL_001_35_8_7" d="m 2105.03,173.39 c -0.335,2.0376 -2.7545,2.8352 -4.5633,2.4688 -2.5151,0.005 -5.0303,0.011 -7.5453,0.016 -0.027,22.905 -0.055,45.81 -0.084,68.714 39.071,-0.3816 78.142,-0.76321 117.21,-1.1448 l 0,-86.025 -105.04,0 c 0.014,5.3236 0.014,10.647 0.022,15.971 z" inkscape:connector-curvature="0" style="fill:#d3f6d4;fill-rule:evenodd;stroke:#000000;stroke-width:0.2" class="land"/><path id="IL_001_35_8_8" d="m 2215.53,248.363 c -40.906,0.38516 -81.812,0.77033 -122.72,1.1555 0.1981,32.508 0.5554,65.015 0.9174,97.521 46.649,-0.38048 93.299,-0.74424 139.95,-1.0913 -0.014,-32.531 -0.018,-65.062 -0.027,-97.594 -6.0405,0.003 -12.081,0.006 -18.121,0.008 z" inkscape:connector-curvature="0" style="fill:#d3f6d4;fill-rule:evenodd;stroke:#000000;stroke-width:0.2" class="land"/><path id="IL_001_35_8_11" d="m 2071.13,564.4 c 0.058,3.84 0.1137,7.6801 0.1712,11.52 54.553,-0.0472 109.11,-0.0945 163.66,-0.14177 l 0,-59.179 c -54.734,-0.13462 -109.47,-0.26925 -164.2,-0.40388 0.1233,16.068 0.246,32.136 0.3691,48.204 z" inkscape:connector-curvature="0" style="fill:#d3f6d4;fill-rule:evenodd;stroke:#000000;stroke-width:0.2" class="land"/><path id="IL_001_35_8_10" d="m 2095.33,451.8 c -8.3337,0.0811 -16.667,0.16227 -25.001,0.2434 0.156,19.747 0.312,39.494 0.4681,59.24 54.734,0.13462 109.47,0.26927 164.2,0.40389 l 0,-59.516 c -46.556,-0.16782 -93.111,-0.41906 -139.67,-0.37179 z" inkscape:connector-curvature="0" style="fill:#d3f6d4;fill-rule:evenodd;stroke:#000000;stroke-width:0.2" class="land"/><path id="IL_001_35_8_9" d="m 2114.03,351.8 c 0.08,31.645 0.1588,63.29 0.238,94.935 37.646,0.17564 75.292,0.35128 112.94,0.52692 l 0,-96.435 c -37.726,0.32453 -75.451,0.64907 -113.18,0.97361 z" inkscape:connector-curvature="0" style="fill:#d3f6d4;fill-rule:evenodd;stroke:#000000;stroke-width:0.2" class="land"/><path id="IL_001_35_8_6" d="m 1998.03,98.481 c 0.2059,2.0385 -2.0883,3.3574 -3.9056,3.0645 -19.549,-0.13599 -39.102,-0.011 -58.649,-0.12764 -0.6489,-0.25615 -0.5379,0.77022 -0.4918,1.1507 0.07,17.114 0.037,34.228 0.043,51.341 l 3.2149,0 c 0.04,6.0209 0.085,12.042 0.126,18.063 3.833,-0.0211 7.6659,-0.0444 11.499,-0.0642 0.1013,34.561 0.2034,69.123 0.305,103.68 45.958,-0.30582 91.915,-0.61163 137.87,-0.91745 -0.014,-34.57 -0.018,-69.141 -0.026,-103.71 4.0352,-0.01 8.0705,-0.0197 12.106,-0.0294 0,-5.8158 -0.014,-11.632 -0.019,-17.447 0.5401,-0.52163 1.2426,-0.88483 1.9927,-0.96559 l 0,-41.723 c -12.911,0.0303 -25.822,0.0612 -38.733,0.0909 -0.044,-6.1787 -0.093,-12.357 -0.1391,-18.536 l -65.194,0 0,6.1279 z" inkscape:connector-curvature="0" style="fill:#d3f6d4;fill-rule:evenodd;stroke:#000000;stroke-width:0.2" class="land"/><path id="IL_001_35_8_4" d="m 1824.83,251.846 -21.42,0 0,96.109 c 47.285,0.0338 94.57,0.0678 141.86,0.10162 0,-32.347 -0.014,-64.693 0.096,-97.04 -40.177,0.2764 -80.355,0.55279 -120.53,0.82918 z" inkscape:connector-curvature="0" style="fill:#d3f6d4;fill-rule:evenodd;stroke:#000000;stroke-width:0.2" class="land"/><path id="IL_001_35_8_3" d="m 1813.53,449.35 c 37.357,-0.5501 74.715,-1.1002 112.07,-1.6503 -0.1427,-31.597 -0.2852,-63.194 -0.4279,-94.79 -37.215,-0.016 -74.43,-0.032 -111.64,-0.0481 l 0,96.489 z" inkscape:connector-curvature="0" style="fill:#d3f6d4;fill-rule:evenodd;stroke:#000000;stroke-width:0.2" class="land"/><path id="IL_001_35_8_1" d="m 1804.23,518.29 0,56.509 c 55.421,0.11941 110.84,0.23893 166.26,0.3584 0,-19.037 -0.095,-38.074 -0.1686,-57.111 -55.365,0.0811 -110.73,0.16227 -166.09,0.2434 z" inkscape:connector-curvature="0" style="fill:#d3f6d4;fill-rule:evenodd;stroke:#000000;stroke-width:0.2" class="land"/><path id="IL_001_35_8_2" d="m 1926.13,452.7 c -22.329,0.19003 -44.656,0.58039 -66.984,0.87899 -18.309,0.26471 -36.618,0.50628 -54.928,0.72051 -0.032,19.691 -0.045,39.383 -0.04,59.075 55.365,-0.0812 110.73,-0.16227 166.09,-0.24341 -0.088,-20.072 -0.1747,-40.144 -0.2621,-60.217 -14.626,-0.10285 -29.252,-0.26363 -43.879,-0.21398 z" inkscape:connector-curvature="0" style="fill:#d3f6d4;fill-rule:evenodd;stroke:#000000;stroke-width:0.2" class="land"/><path id="IL_001_35_7_4" d="m 1304.53,256.965 c 39.359,-0.27639 78.718,-0.55277 118.08,-0.82916 -0.1342,-23.096 -0.2692,-46.191 -0.4038,-69.287 -3.8329,0.0211 -7.6658,0.0444 -11.499,0.0642 -0.04,-6.0209 -0.082,-12.042 -0.1233,-18.063 l -106.05,0 0,88.114 z" inkscape:connector-curvature="0" style="fill:#d3f6d4;fill-rule:evenodd;stroke:#000000;stroke-width:0.2" class="land"/><path id="IL_001_35_7_6" d="m 1582.33,183.4201 c -0.3347,2.0385 -2.754,2.8353 -4.563,2.4688 -2.5144,0.007 -5.0286,0.0123 -7.5428,0.0188 -0.029,22.904 -0.057,45.808 -0.085,68.712 39.071,-0.38159 78.142,-0.76319 117.21,-1.1448 l 0,-86.025 -105.04,0 c 0.014,5.3236 0.014,10.647 0.022,15.971 z" inkscape:connector-curvature="0" style="fill:#d3f6d4;fill-rule:evenodd;stroke:#000000;stroke-width:0.2" class="land"/><path id="IL_001_35_7_7" d="m 1694.53,258.439 c -41.458,0.28192 -82.916,0.7103 -124.37,1.11 0.198,32.509 0.5553,65.017 0.9174,97.524 46.645,-0.36733 93.29,-0.73465 139.93,-1.102 0,-32.536 -0.014,-65.071 -0.014,-97.607 -5.4887,0.0249 -10.977,0.05 -16.466,0.0749 z" inkscape:connector-curvature="0" style="fill:#d3f6d4;fill-rule:evenodd;stroke:#000000;stroke-width:0.2" class="land"/><path id="IL_001_35_7_9" d="m 1573.43,516.72 c 0.1055,20.334 0.1898,40.669 0.3692,61.003 l 138.43,0 0,-115.52 c -46.325,-0.17977 -92.65,-0.3456 -138.97,-0.4975 0.057,18.339 0.1136,36.678 0.1711,55.017 z" inkscape:connector-curvature="0" style="fill:#d3f6d4;fill-rule:evenodd;stroke:#000000;stroke-width:0.2" class="land"/><path id="IL_001_35_7_8" d="m 1591.33,361.83 c 0.079,31.645 0.1585,63.29 0.238,94.935 37.647,0.17563 75.294,0.35128 112.94,0.52692 l 0,-96.435 c -37.726,0.32454 -75.453,0.64908 -113.18,0.97362 z" inkscape:connector-curvature="0" style="fill:#d3f6d4;fill-rule:evenodd;stroke:#000000;stroke-width:0.2" class="land"/><path id="IL_001_35_7_5" d="m 1475.33,108.928 c -0.1729,2.0653 -2.5926,2.9908 -4.3977,2.5918 l -58.609,0 0,52.42 3.215,0 c 0.04,6.0209 0.082,12.042 0.1233,18.063 3.8328,-0.0211 7.6657,-0.0444 11.499,-0.0642 0.1014,34.562 0.2034,69.124 0.3049,103.69 45.958,-0.30671 91.915,-0.61341 137.87,-0.92012 -0.014,-34.569 -0.018,-69.139 -0.026,-103.71 4.0361,-0.01 8.0723,-0.0215 12.109,-0.032 -0.014,-5.8167 -0.015,-11.633 -0.022,-17.45 0.546,-0.5112 1.2403,-0.883 1.9901,-0.9629 l 0,-43.754 c -12.941,0.0683 -25.883,0.13876 -38.824,0.20596 -0.03,-5.5394 -0.063,-11.079 -0.093,-16.618 l -65.141,0 0,6.5424 z" inkscape:connector-curvature="0" style="fill:#d3f6d4;fill-rule:evenodd;stroke:#000000;stroke-width:0.2" class="land"/><path id="IL_001_35_7_3" d="m 1302.13,261.876 -21.42,0 0,96.109 c 47.284,0.0348 94.568,0.0696 141.85,0.10435 0,-32.348 -0.014,-64.695 0.096,-97.043 -40.176,0.2764 -80.353,0.55279 -120.53,0.82918 z" inkscape:connector-curvature="0" style="fill:#d3f6d4;fill-rule:evenodd;stroke:#000000;stroke-width:0.2" class="land"/><path id="IL_001_35_7_2" d="m 1290.83,459.39 c 37.357,-0.5501 74.715,-1.1002 112.07,-1.6503 -0.1425,-31.597 -0.2852,-63.194 -0.4279,-94.79 -37.215,-0.017 -74.429,-0.0338 -111.64,-0.0508 l 0,96.492 z" inkscape:connector-curvature="0" style="fill:#d3f6d4;fill-rule:evenodd;stroke:#000000;stroke-width:0.2" class="land"/><path id="IL_001_35_7_1" d="m 1405.33,462.6 c -41.282,0.59757 -82.563,1.2173 -123.85,1.7118 -0.014,38.392 -5e-4,76.783 -0.027,115.17 l 140.11,0 c -0.1435,-38.967 -0.2872,-77.933 -0.4307,-116.9 -5.2692,0.004 -10.538,0.01 -15.808,0.0137 z" inkscape:connector-curvature="0" style="fill:#d3f6d4;fill-rule:evenodd;stroke:#000000;stroke-width:0.2" class="land"/><text id="Txt_IL_001_35_9_1" style="font-size:20.54199906px;line-height:125%;font-family:sans-serif;letter-spacing:0px;word-spacing:0px;fill:#000000;" xml:space="preserve" y="523.33179" x="2397.2305" line-height="125%" sodipodi:linespacing="125%"><tspan id="tspan4361" font-size="20.542px" y="523.33179" x="2397.2305" style="font-size:20.54199906px;stroke-width:0.2;">1</tspan></text>
<text id="Txt_IL_001_35_9_2" style="font-size:20.54199906px;line-height:125%;font-family:sans-serif;letter-spacing:0px;word-spacing:0px;fill:#000000;" line-height="125%" y="412.39435" x="2388.4214" xml:space="preserve" sodipodi:linespacing="125%"><tspan id="tspan4367" font-size="20.542px" y="412.39435" x="2388.4214" style="font-size:20.54199906px;stroke-width:0.2;">2</tspan></text>
<text id="Txt_IL_001_35_9_3" style="font-size:20.54199906px;line-height:125%;font-family:sans-serif;letter-spacing:0px;word-spacing:0px;fill:#000000;" line-height="125%" y="310.25" x="2397.2305" xml:space="preserve" sodipodi:linespacing="125%"><tspan id="tspan4373" font-size="20.542px" y="310.25" x="2397.2305" style="font-size:20.54199906px;stroke-width:0.2;">3</tspan></text>
<text id="Txt_IL_001_35_9_4" style="font-size:20.54199906px;line-height:125%;font-family:sans-serif;letter-spacing:0px;word-spacing:0px;fill:#000000;" xml:space="preserve" y="213.59312" x="2402.6196" line-height="125%" sodipodi:linespacing="125%"><tspan id="tspan4379" font-size="20.542px" y="213.59312" x="2402.6196" style="font-size:20.54199906px;stroke-width:0.2;">4</tspan></text>
<text id="Txt_IL_001_35_9_6" style="font-size:20.54199906px;line-height:125%;font-family:sans-serif;letter-spacing:0px;word-spacing:0px;fill:#000000;" line-height="125%" y="215.63434" x="2673.4668" xml:space="preserve" sodipodi:linespacing="125%"><tspan id="tspan4385" font-size="20.542px" y="215.63434" x="2673.4668" style="font-size:20.54199906px;stroke-width:0.2;">6</tspan></text>
<text id="Txt_IL_001_35_9_7" style="font-size:20.54199906px;line-height:125%;font-family:sans-serif;letter-spacing:0px;word-spacing:0px;fill:#000000;" xml:space="preserve" y="311.18512" x="2686.0034" line-height="125%" sodipodi:linespacing="125%"><tspan id="tspan4391" font-size="20.542px" y="311.18512" x="2686.0034" style="font-size:20.54199906px;stroke-width:0.2;">7</tspan></text>
<text id="Txt_IL_001_35_9_8" style="font-size:20.54199906px;line-height:125%;font-family:sans-serif;letter-spacing:0px;word-spacing:0px;fill:#000000;" xml:space="preserve" y="411.38574" x="2693.6987" line-height="125%" sodipodi:linespacing="125%"><tspan id="tspan4397" font-size="20.542px" y="411.38574" x="2693.6987" style="font-size:20.54199906px;stroke-width:0.2;">8</tspan></text>
<text id="Txt_IL_001_35_9_9" style="font-size:20.54199906px;line-height:125%;font-family:sans-serif;letter-spacing:0px;word-spacing:0px;fill:#000000;" line-height="125%" y="523.67963" x="2688.2139" xml:space="preserve" sodipodi:linespacing="125%"><tspan id="tspan4403" font-size="20.542px" y="523.67963" x="2688.2139" style="font-size:20.54199906px;stroke-width:0.2;">9</tspan></text>
<text id="Txt_IL_001_35_8_1" style="font-size:20.54199906px;line-height:125%;font-family:sans-serif;letter-spacing:0px;word-spacing:0px;fill:#000000;" line-height="125%" y="553.33539" x="1880.2435" xml:space="preserve" sodipodi:linespacing="125%"><tspan id="tspan4427" font-size="20.542px" y="553.33539" x="1880.2435" style="font-size:20.54199906px;stroke-width:0.2;">1</tspan></text>
<text id="Txt_IL_001_35_8_3" style="font-size:20.54199906px;line-height:125%;font-family:sans-serif;letter-spacing:0px;word-spacing:0px;fill:#000000;" xml:space="preserve" y="407.41568" x="1863.0256" line-height="125%" sodipodi:linespacing="125%"><tspan id="tspan4433" font-size="20.542px" y="407.41568" x="1863.0256" style="font-size:20.54199906px;stroke-width:0.2;">3</tspan></text>
<text id="Txt_IL_001_35_8_4" style="font-size:20.54199906px;line-height:125%;font-family:sans-serif;letter-spacing:0px;word-spacing:0px;fill:#000000;" xml:space="preserve" y="307.26678" x="1870.1399" line-height="125%" sodipodi:linespacing="125%"><tspan id="tspan4439" font-size="20.542px" y="307.26678" x="1870.1399" style="font-size:20.54199906px;stroke-width:0.2;">4</tspan></text>
<text id="Txt_IL_001_35_8_5" style="font-size:20.54199906px;line-height:125%;font-family:sans-serif;letter-spacing:0px;word-spacing:0px;fill:#000000;" line-height="125%" y="210.26753" x="1879.4664" xml:space="preserve" sodipodi:linespacing="125%"><tspan id="tspan4445" font-size="20.542px" y="210.26753" x="1879.4664" style="font-size:20.54199906px;stroke-width:0.2;">5</tspan></text>
<text id="Txt_IL_001_35_8_7" style="font-size:20.54199906px;line-height:125%;font-family:sans-serif;letter-spacing:0px;word-spacing:0px;fill:#000000;" xml:space="preserve" y="211.62401" x="2145.6501" line-height="125%" sodipodi:linespacing="125%"><tspan id="tspan4451" font-size="20.542px" y="211.62401" x="2145.6501" style="font-size:20.54199906px;stroke-width:0.2;">7</tspan></text>
<text id="Txt_IL_001_35_8_8" style="font-size:20.54199906px;line-height:125%;font-family:sans-serif;letter-spacing:0px;word-spacing:0px;fill:#000000;" line-height="125%" y="307.1748" x="2158.9131" xml:space="preserve" sodipodi:linespacing="125%"><tspan id="tspan4457" font-size="20.542px" y="307.1748" x="2158.9131" style="font-size:20.54199906px;stroke-width:0.2;">8</tspan></text>
<text id="Txt_IL_001_35_8_9" style="font-size:20.54199906px;line-height:125%;font-family:sans-serif;letter-spacing:0px;word-spacing:0px;fill:#000000;" line-height="125%" y="407.37543" x="2166.6082" xml:space="preserve" sodipodi:linespacing="125%"><tspan id="tspan4463" font-size="20.542px" y="407.37543" x="2166.6082" style="font-size:20.54199906px;stroke-width:0.2;">9</tspan></text>
<text id="Txt_IL_001_35_8_11" style="font-size:20.54199906px;line-height:125%;font-family:sans-serif;letter-spacing:0px;word-spacing:0px;fill:#000000;" xml:space="preserve" y="555.33417" x="2144.1909" line-height="125%" sodipodi:linespacing="125%"><tspan id="tspan4469" font-size="20.542px" y="555.33417" x="2144.1909" style="font-size:20.54199906px;stroke-width:0.2;">11</tspan></text>
<text id="Txt_IL_001_35_7_1" style="font-size:20.54199906px;line-height:125%;font-family:sans-serif;letter-spacing:0px;word-spacing:0px;fill:#000000;" xml:space="preserve" y="530.32153" x="1345.7332" line-height="125%" sodipodi:linespacing="125%"><tspan id="tspan4493" font-size="20.542px" y="530.32153" x="1345.7332" style="font-size:20.54199906px;stroke-width:0.2;">1</tspan></text>
<text id="Txt_IL_001_35_7_2" style="font-size:20.54199906px;line-height:125%;font-family:sans-serif;letter-spacing:0px;word-spacing:0px;fill:#000000;" line-height="125%" y="419.384" x="1339.8291" xml:space="preserve" sodipodi:linespacing="125%"><tspan id="tspan4499" font-size="20.542px" y="419.384" x="1339.8291" style="font-size:20.54199906px;stroke-width:0.2;">2</tspan></text>
<text id="Txt_IL_001_35_7_3" style="font-size:20.54199906px;line-height:125%;font-family:sans-serif;letter-spacing:0px;word-spacing:0px;fill:#000000;" line-height="125%" y="317.23962" x="1345.249" xml:space="preserve" sodipodi:linespacing="125%"><tspan id="tspan4505" font-size="20.542px" y="317.23962" x="1345.249" style="font-size:20.54199906px;stroke-width:0.2;">3</tspan></text>
<text id="Txt_IL_001_35_7_4" style="font-size:20.54199906px;line-height:125%;font-family:sans-serif;letter-spacing:0px;word-spacing:0px;fill:#000000;" xml:space="preserve" y="221.32625" x="1352.8171" line-height="125%" sodipodi:linespacing="125%"><tspan id="tspan4511" font-size="20.542px" y="221.32625" x="1352.8171" style="font-size:20.54199906px;stroke-width:0.2;">4</tspan></text>
<text id="Txt_IL_001_35_7_6" style="font-size:20.54199906px;line-height:125%;font-family:sans-serif;letter-spacing:0px;word-spacing:0px;fill:#000000;" line-height="125%" y="221.65562" x="1625.1167" xml:space="preserve" sodipodi:linespacing="125%"><tspan id="tspan4517" font-size="20.542px" y="221.65562" x="1625.1167" style="font-size:20.54199906px;stroke-width:0.2;">6</tspan></text>
<text id="Txt_IL_001_35_7_7" style="font-size:20.54199906px;line-height:125%;font-family:sans-serif;letter-spacing:0px;word-spacing:0px;fill:#000000;" xml:space="preserve" y="317.20642" x="1636.2009" line-height="125%" sodipodi:linespacing="125%"><tspan id="tspan4523" font-size="20.542px" y="317.20642" x="1636.2009" style="font-size:20.54199906px;stroke-width:0.2;">7</tspan></text>
<text id="Txt_IL_001_35_7_8" style="font-size:20.54199906px;line-height:125%;font-family:sans-serif;letter-spacing:0px;word-spacing:0px;fill:#000000;" xml:space="preserve" y="417.40704" x="1643.8961" line-height="125%" sodipodi:linespacing="125%"><tspan id="tspan4529" font-size="20.542px" y="417.40704" x="1643.8961" style="font-size:20.54199906px;stroke-width:0.2;">8</tspan></text>
<text id="Txt_IL_001_35_7_9" style="font-size:20.54199906px;line-height:125%;font-family:sans-serif;letter-spacing:0px;word-spacing:0px;fill:#000000;" line-height="125%" y="529.70099" x="1638.4113" xml:space="preserve" sodipodi:linespacing="125%"><tspan id="tspan4535" font-size="20.542px" y="529.70099" x="1638.4113" style="font-size:20.54199906px;stroke-width:0.2;">9</tspan></text>
<text id="Txt_IL_001_35_8_2" style="font-size:20.54199906px;line-height:125%;font-family:sans-serif;letter-spacing:0px;word-spacing:0px;fill:#000000;" xml:space="preserve" y="491.2821" x="1880.2435" line-height="125%" sodipodi:linespacing="125%"><tspan id="tspan4549" font-size="20.542px" y="491.2821" x="1880.2435" style="font-size:20.54199906px;stroke-width:0.2;">2</tspan></text>
<text id="Txt_IL_001_35_8_10" style="font-size:20.54199906px;line-height:125%;font-family:sans-serif;letter-spacing:0px;word-spacing:0px;fill:#000000;" line-height="125%" y="491.668" x="2144.1909" xml:space="preserve" sodipodi:linespacing="125%"><tspan id="tspan4555" font-size="20.542px" y="491.668" x="2144.1909" style="font-size:20.54199906px;stroke-width:0.2;">10</tspan></text>
<text id="Txt_IL_001_35_9_5" style="font-size:20.54199906px;line-height:125%;font-family:sans-serif;letter-spacing:0px;word-spacing:0px;fill:#000000;" xml:space="preserve" y="200.68594" x="2538.8123" line-height="125%" sodipodi:linespacing="125%"><tspan id="tspan4588" font-size="20.542px" y="200.68594" x="2538.8123" style="font-size:20.54199906px;stroke-width:0.2;">5</tspan></text>
<text id="Txt_IL_001_35_8_6" style="font-size:20.54199906px;line-height:125%;font-family:sans-serif;letter-spacing:0px;word-spacing:0px;fill:#000000;" line-height="125%" y="194.33513" x="2017.264" xml:space="preserve" sodipodi:linespacing="125%"><tspan id="tspan4594" font-size="20.542px" y="194.33513" x="2017.264" style="font-size:20.54199906px;stroke-width:0.2;">6</tspan></text>
<text id="Txt_IL_001_35_7_5" style="font-size:20.54199906px;line-height:125%;font-family:sans-serif;letter-spacing:0px;word-spacing:0px;fill:#000000;" xml:space="preserve" y="194.33513" x="1490.3518" line-height="125%" sodipodi:linespacing="125%"><tspan id="tspan4600" font-size="20.542px" y="194.33513" x="1490.3518" style="font-size:20.54199906px;stroke-width:0.2;">5</tspan></text>
<path id="Star_IL_001_35_9_1" d="m 2358.83,523.62 -5.9783,-2.0273 -5.0592,3.7755 0.081,-6.3122 -5.1541,-3.6449 6.0282,-1.8738 1.8738,-6.0281 3.6449,5.1541 6.3122,-0.0807 -3.7755,5.0592 z" inkscape:connector-curvature="0" style="fill:#000080" class="land"/><path id="Star_IL_001_35_9_2" d="m 2362.83,411.47 -5.9783,-2.0273 -5.0592,3.7755 0.081,-6.3122 -5.154,-3.6449 6.0281,-1.8738 1.8739,-6.0281 3.6449,5.1541 6.3121,-0.0807 -3.7754,5.0592 z" inkscape:connector-curvature="0" style="fill:#000080" class="land"/><path id="Star_IL_001_35_9_3" d="m 2358.83,310.53 -5.9783,-2.0273 -5.0592,3.7755 0.081,-6.3122 -5.1541,-3.6449 6.0282,-1.8738 1.8738,-6.0281 3.6449,5.1541 6.3122,-0.0807 -3.7755,5.0592 z" inkscape:connector-curvature="0" style="fill:#000080" class="land"/><path id="Star_IL_001_35_9_4" d="m 2376.33,213.878 -5.9783,-2.0273 -5.0592,3.7755 0.081,-6.3121 -5.1541,-3.6449 6.0282,-1.8738 1.8738,-6.0281 3.6449,5.1541 6.3121,-0.0807 -3.7754,5.0592 z" inkscape:connector-curvature="0" style="fill:#000080" class="land"/><path id="Star_IL_001_35_9_6" d="m 2727.03,213.878 -5.9782,-2.0273 -5.0592,3.7755 0.081,-6.3121 -5.154,-3.6449 6.0281,-1.8738 1.8738,-6.0281 3.645,5.1541 6.3121,-0.0807 -3.7755,5.0592 z" inkscape:connector-curvature="0" style="fill:#000080" class="land"/><path id="Star_IL_001_35_9_7" d="m 2752.53,310.87 -5.9783,-2.0273 -5.0592,3.7755 0.081,-6.3121 -5.1541,-3.6449 6.0282,-1.8738 1.8738,-6.0281 3.6449,5.1541 6.3122,-0.0807 -3.7755,5.0592 z" inkscape:connector-curvature="0" style="fill:#000080" class="land"/><path id="Star_IL_001_35_9_8" d="m 2745.73,409.63 -5.9783,-2.0273 -5.0592,3.7755 0.081,-6.3122 -5.1541,-3.6449 6.0282,-1.8738 1.8738,-6.0281 3.6449,5.1541 6.3121,-0.0807 -3.7754,5.0592 z" inkscape:connector-curvature="0" style="fill:#000080" class="land"/><path id="Star_IL_001_35_9_9" d="m 2753.83,521.92 -5.9782,-2.0273 -5.0592,3.7755 0.081,-6.3122 -5.154,-3.6449 6.0281,-1.8738 1.8738,-6.0281 3.645,5.1541 6.3121,-0.0807 -3.7754,5.0592 z" inkscape:connector-curvature="0" style="fill:#000080" class="land"/><path id="Star_IL_001_35_8_1" d="m 1831.73,553.62 -5.9783,-2.0273 -5.0592,3.7755 0.081,-6.3122 -5.1541,-3.6449 6.0281,-1.8738 1.8739,-6.0281 3.6449,5.1541 6.3121,-0.0807 -3.7754,5.0592 z" inkscape:connector-curvature="0" style="fill:#000080" class="land"/><path id="Star_IL_001_35_8_3" d="m 1835.73,407.46 -5.9783,-2.0273 -5.0592,3.7755 0.081,-6.3122 -5.1541,-3.6449 6.0282,-1.8738 1.8738,-6.0281 3.6449,5.1541 6.3121,-0.0807 -3.7754,5.0592 z" inkscape:connector-curvature="0" style="fill:#000080" class="land"/><path id="Star_IL_001_35_8_4" d="m 1831.73,307.55 -5.9783,-2.0273 -5.0592,3.7755 0.081,-6.3122 -5.1541,-3.6449 6.0281,-1.8738 1.8739,-6.0281 3.6449,5.1541 6.3121,-0.0807 -3.7754,5.0592 z" inkscape:connector-curvature="0" style="fill:#000080" class="land"/><path id="Star_IL_001_35_8_5" d="m 1850.53,209.867 -5.9783,-2.0273 -5.0592,3.7755 0.081,-6.3121 -5.1541,-3.6449 6.0282,-1.8738 1.8738,-6.0281 3.6449,5.1541 6.3122,-0.0807 -3.7755,5.0592 z" inkscape:connector-curvature="0" style="fill:#000080" class="land"/><path id="Star_IL_001_35_8_7" d="m 2199.93,209.867 -5.9783,-2.0273 -5.0592,3.7755 0.081,-6.3121 -5.1541,-3.6449 6.0282,-1.8738 1.8738,-6.0281 3.6449,5.1541 6.3122,-0.0807 -3.7755,5.0592 z" inkscape:connector-curvature="0" style="fill:#000080" class="land"/><path id="Star_IL_001_35_8_8" d="m 2225.43,306.86 -5.9783,-2.0273 -5.0592,3.7755 0.081,-6.3121 -5.1541,-3.6449 6.0281,-1.8738 1.8739,-6.0281 3.6449,5.1541 6.3121,-0.0807 -3.7754,5.0592 z" inkscape:connector-curvature="0" style="fill:#000080" class="land"/><path id="Star_IL_001_35_8_9" d="m 2218.63,405.62 -5.9783,-2.0273 -5.0592,3.7755 0.081,-6.3122 -5.1541,-3.6449 6.0281,-1.8738 1.8739,-6.0281 3.6449,5.1541 6.3121,-0.0807 -3.7754,5.0592 z" inkscape:connector-curvature="0" style="fill:#000080" class="land"/><path id="Star_IL_001_35_8_11" d="m 2226.73,553.58 -5.9783,-2.0273 -5.0592,3.7755 0.081,-6.3121 -5.154,-3.6449 6.0281,-1.8738 1.8738,-6.0281 3.6449,5.1541 6.3122,-0.0807 -3.7755,5.0592 z" inkscape:connector-curvature="0" style="fill:#000080" class="land"/><path id="Star_IL_001_35_7_1" d="m 1309.03,529.64 -5.9783,-2.0273 -5.0592,3.7755 0.081,-6.3121 -5.1541,-3.6449 6.0281,-1.8738 1.8739,-6.0281 3.6449,5.1541 6.3121,-0.0807 -3.7754,5.0592 z" inkscape:connector-curvature="0" style="fill:#000080" class="land"/><path id="Star_IL_001_35_7_2" d="m 1313.03,418.7 -5.9783,-2.0273 -5.0592,3.7755 0.081,-6.3122 -5.1541,-3.6449 6.0282,-1.8738 1.8738,-6.0281 3.6449,5.1541 6.3121,-0.0807 -3.7754,5.0592 z" inkscape:connector-curvature="0" style="fill:#000080" class="land"/><path id="Star_IL_001_35_7_3" d="m 1306.03,316.56 -5.9783,-2.0273 -5.0592,3.7755 0.081,-6.3122 -5.154,-3.6449 6.0281,-1.8738 1.8738,-6.0281 3.6449,5.1541 6.3122,-0.0807 -3.7755,5.0592 z" inkscape:connector-curvature="0" style="fill:#000080" class="land"/><path id="Star_IL_001_35_7_4" d="m 1326.53,221.611 -5.9782,-2.0273 -5.0592,3.7755 0.081,-6.3121 -5.154,-3.6449 6.0281,-1.8738 1.8738,-6.0281 3.645,5.1541 6.3121,-0.0807 -3.7754,5.0592 z" inkscape:connector-curvature="0" style="fill:#000080" class="land"/><path id="Star_IL_001_35_7_6" d="m 1677.13,219.899 -5.9783,-2.0273 -5.0592,3.7755 0.081,-6.3121 -5.1541,-3.6449 6.0282,-1.8738 1.8738,-6.0281 3.6449,5.1541 6.3121,-0.0807 -3.7754,5.0592 z" inkscape:connector-curvature="0" style="fill:#000080" class="land"/><path id="Star_IL_001_35_7_7" d="m 1702.73,316.89 -5.9783,-2.0273 -5.0592,3.7755 0.081,-6.3122 -5.1541,-3.6449 6.0281,-1.8738 1.8739,-6.0281 3.6449,5.1541 6.3121,-0.0807 -3.7754,5.0592 z" inkscape:connector-curvature="0" style="fill:#000080" class="land"/><path id="Star_IL_001_35_7_8" d="m 1695.93,415.65 -5.9783,-2.0273 -5.0592,3.7755 0.081,-6.3122 -5.154,-3.6449 6.0281,-1.8738 1.8738,-6.0281 3.6449,5.1541 6.3122,-0.0807 -3.7755,5.0592 z" inkscape:connector-curvature="0" style="fill:#000080" class="land"/><path id="Star_IL_001_35_7_9" d="m 1704.03,527.94 -5.9783,-2.0273 -5.0592,3.7755 0.081,-6.3121 -5.1541,-3.6449 6.0281,-1.8738 1.8739,-6.0281 3.6449,5.1541 6.3121,-0.0807 -3.7754,5.0592 z" inkscape:connector-curvature="0" style="fill:#000080" class="land"/><path id="Star_IL_001_35_8_2" d="m 1831.73,491.57 -5.9783,-2.0273 -5.0592,3.7755 0.081,-6.3122 -5.1541,-3.6449 6.0281,-1.8738 1.8739,-6.0281 3.6449,5.154 6.3121,-0.0807 -3.7754,5.0592 z" inkscape:connector-curvature="0" style="fill:#000080" class="land"/><path id="Star_IL_001_35_8_10" d="m 2226.73,489.91 -5.9783,-2.0273 -5.0592,3.7755 0.081,-6.3121 -5.154,-3.6449 6.0281,-1.8738 1.8738,-6.0281 3.6449,5.1541 6.3122,-0.0807 -3.7755,5.0592 z" inkscape:connector-curvature="0" style="fill:#000080" class="land"/><path id="Star_IL_001_35_9_5" d="m 2549.73,130.682 -5.9783,-2.0273 -5.0592,3.7755 0.081,-6.3121 -5.1541,-3.6449 6.0282,-1.8738 1.8738,-6.0281 3.6449,5.1541 6.3121,-0.0807 -3.7754,5.0592 z" inkscape:connector-curvature="0" style="fill:#000080" class="land"/><path id="Star_IL_001_35_8_6" d="m 2030.13,124.331 -5.9783,-2.0273 -5.0592,3.7755 0.081,-6.3121 -5.1541,-3.6449 6.0282,-1.8738 1.8738,-6.0281 3.6449,5.1541 6.3122,-0.0807 -3.7755,5.0592 z" inkscape:connector-curvature="0" style="fill:#000080" class="land"/><path id="Star_IL_001_35_7_5" d="m 1501.23,124.331 -5.9783,-2.0273 -5.0592,3.7755 0.081,-6.3121 -5.1541,-3.6449 6.0281,-1.8738 1.8739,-6.0281 3.6449,5.1541 6.3121,-0.0807 -3.7754,5.0592 z" inkscape:connector-curvature="0" style="fill:#000080" class="land"/><path id="Cir_IL_001_35_9_1" d="m 2460.63,522.71 c -2.317,2.317 -6.0704,2.9115 -8.9901,1.4239 -2.9196,-1.4876 -4.6449,-4.8736 -4.1323,-8.1101 0.5126,-3.2364 3.1998,-5.9236 6.4362,-6.4362 3.2365,-0.5126 6.6225,1.2127 8.1101,4.1323 1.4877,2.9196 0.8932,6.6731 -1.4239,8.9901 z" inkscape:connector-curvature="0" style="fill:#800080" class="land"/><path id="Cir_IL_001_35_9_2" d="m 2441.83,410.39 c -2.3171,2.317 -6.0705,2.9115 -8.9901,1.4239 -2.9197,-1.4876 -4.6449,-4.8736 -4.1323,-8.1101 0.5126,-3.2364 3.1997,-5.9236 6.4362,-6.4362 3.2364,-0.51261 6.6224,1.2127 8.1101,4.1323 1.4876,2.9196 0.8931,6.6731 -1.4239,8.9901 z" inkscape:connector-curvature="0" style="fill:#800080" class="land"/><path id="Cir_IL_001_35_9_3" d="m 2459.73,309.29 c -2.3171,2.317 -6.0705,2.9115 -8.9901,1.4239 -2.9197,-1.4876 -4.6449,-4.8737 -4.1323,-8.1101 0.5126,-3.2364 3.1997,-5.9236 6.4362,-6.4362 3.2364,-0.5126 6.6224,1.2127 8.1101,4.1323 1.4876,2.9196 0.8931,6.6731 -1.4239,8.9901 z" inkscape:connector-curvature="0" style="fill:#800080" class="land"/><path id="Cir_IL_001_35_9_4" d="m 2459.63,212.628 c -2.317,2.317 -6.0705,2.9115 -8.9901,1.4239 -2.9196,-1.4876 -4.6449,-4.8737 -4.1323,-8.1101 0.5126,-3.2364 3.1998,-5.9236 6.4362,-6.4362 3.2364,-0.5126 6.6225,1.2127 8.1101,4.1323 1.4876,2.9196 0.8931,6.6731 -1.4239,8.9901 z" inkscape:connector-curvature="0" style="fill:#800080" class="land"/><path id="Cir_IL_001_35_9_6" d="m 2642.63,212.628 c -2.317,2.317 -6.0704,2.9115 -8.9901,1.4239 -2.9196,-1.4876 -4.6449,-4.8737 -4.1323,-8.1101 0.5126,-3.2364 3.1998,-5.9236 6.4362,-6.4362 3.2365,-0.5126 6.6225,1.2127 8.1101,4.1323 1.4876,2.9196 0.8932,6.6731 -1.4239,8.9901 z" inkscape:connector-curvature="0" style="fill:#800080" class="land"/><path id="Cir_IL_001_35_9_7" d="m 2641.83,309.62 c -2.3171,2.317 -6.0705,2.9115 -8.9901,1.4239 -2.9197,-1.4876 -4.6449,-4.8736 -4.1323,-8.1101 0.5126,-3.2364 3.1997,-5.9236 6.4362,-6.4362 3.2364,-0.5126 6.6224,1.2127 8.1101,4.1323 1.4876,2.9196 0.8931,6.6731 -1.4239,8.9901 z" inkscape:connector-curvature="0" style="fill:#800080" class="land"/><path id="Cir_IL_001_35_9_8" d="m 2665.13,408.38 c -2.3171,2.317 -6.0705,2.9115 -8.9901,1.4239 -2.9197,-1.4876 -4.6449,-4.8737 -4.1323,-8.1101 0.5126,-3.2364 3.1997,-5.9236 6.4362,-6.4362 3.2364,-0.5126 6.6224,1.2127 8.1101,4.1323 1.4876,2.9196 0.8931,6.6731 -1.4239,8.9901 z" inkscape:connector-curvature="0" style="fill:#800080" class="land"/><path id="Cir_IL_001_35_9_9" d="m 2649.03,520.67 c -2.3171,2.317 -6.0705,2.9115 -8.9901,1.4239 -2.9197,-1.4876 -4.6449,-4.8736 -4.1323,-8.1101 0.5126,-3.2364 3.1997,-5.9236 6.4362,-6.4362 3.2364,-0.5126 6.6224,1.2127 8.11,4.1323 1.4877,2.9196 0.8932,6.6731 -1.4238,8.9901 z" inkscape:connector-curvature="0" style="fill:#800080" class="land"/><path id="Cir_IL_001_35_8_1" d="m 1953.33,552.37 c -2.317,2.317 -6.0704,2.9115 -8.9901,1.4239 -2.9196,-1.4876 -4.6449,-4.8737 -4.1323,-8.1101 0.5126,-3.2364 3.1998,-5.9236 6.4362,-6.4362 3.2365,-0.5126 6.6225,1.2127 8.1101,4.1323 1.4877,2.9196 0.8932,6.6731 -1.4239,8.9901 z" inkscape:connector-curvature="0" style="fill:#800080" class="land"/><path id="Cir_IL_001_35_8_3" d="m 1915.93,405.97 c -2.317,2.317 -6.0705,2.9115 -8.9901,1.4239 -2.9196,-1.4876 -4.6449,-4.8736 -4.1323,-8.1101 0.5126,-3.2364 3.1998,-5.9236 6.4362,-6.4362 3.2365,-0.51261 6.6225,1.2127 8.1101,4.1323 1.4876,2.9196 0.8931,6.6731 -1.4239,8.9901 z" inkscape:connector-curvature="0" style="fill:#800080" class="land"/><path id="Cir_IL_001_35_8_4" d="m 1931.83,306.3 c -2.317,2.317 -6.0704,2.9115 -8.9901,1.4239 -2.9196,-1.4876 -4.6449,-4.8737 -4.1323,-8.1101 0.5126,-3.2364 3.1998,-5.9236 6.4362,-6.4362 3.2365,-0.5126 6.6225,1.2127 8.1101,4.1323 1.4877,2.9196 0.8932,6.6731 -1.4239,8.9901 z" inkscape:connector-curvature="0" style="fill:#800080" class="land"/><path id="Cir_IL_001_35_8_5" d="m 1932.83,208.618 c -2.317,2.317 -6.0705,2.9115 -8.9901,1.4239 -2.9196,-1.4876 -4.6449,-4.8737 -4.1323,-8.1101 0.5126,-3.2364 3.1998,-5.9236 6.4362,-6.4362 3.2364,-0.5126 6.6225,1.2127 8.1101,4.1323 1.4876,2.9196 0.8931,6.6731 -1.4239,8.9901 z" inkscape:connector-curvature="0" style="fill:#800080" class="land"/><path id="Cir_IL_001_35_8_7" d="m 2115.83,208.618 c -2.3171,2.317 -6.0705,2.9115 -8.9901,1.4239 -2.9197,-1.4876 -4.6449,-4.8737 -4.1323,-8.1101 0.5126,-3.2364 3.1997,-5.9236 6.4362,-6.4362 3.2364,-0.5126 6.6224,1.2127 8.11,4.1323 1.4877,2.9196 0.8932,6.6731 -1.4238,8.9901 z" inkscape:connector-curvature="0" style="fill:#800080" class="land"/><path id="Cir_IL_001_35_8_8" d="m 2117.03,305.61 c -2.3171,2.317 -6.0705,2.9115 -8.9901,1.4239 -2.9197,-1.4876 -4.6449,-4.8736 -4.1323,-8.1101 0.5126,-3.2364 3.1997,-5.9236 6.4362,-6.4362 3.2364,-0.5126 6.6224,1.2127 8.1101,4.1323 1.4876,2.9196 0.8931,6.6731 -1.4239,8.9901 z" inkscape:connector-curvature="0" style="fill:#800080" class="land"/><path id="Cir_IL_001_35_8_9" d="m 2138.33,404.37 c -2.317,2.317 -6.0705,2.9115 -8.9901,1.4239 -2.9196,-1.4876 -4.6449,-4.8736 -4.1323,-8.1101 0.5126,-3.2364 3.1998,-5.9236 6.4362,-6.4362 3.2364,-0.5126 6.6225,1.2127 8.1101,4.1323 1.4876,2.9196 0.8931,6.6731 -1.4239,8.9901 z" inkscape:connector-curvature="0" style="fill:#800080" class="land"/><path id="Cir_IL_001_35_8_11" d="m 2097.53,552.33 c -2.3171,2.317 -6.0705,2.9115 -8.9901,1.4239 -2.9197,-1.4876 -4.6449,-4.8737 -4.1323,-8.1101 0.5126,-3.2364 3.1997,-5.9236 6.4362,-6.4362 3.2364,-0.5126 6.6224,1.2127 8.1101,4.1323 1.4876,2.9196 0.8931,6.6731 -1.4239,8.9901 z" inkscape:connector-curvature="0" style="fill:#800080" class="land"/><path id="Cir_IL_001_35_7_1" d="m 1406.53,529.11 c -2.317,2.317 -6.0704,2.9115 -8.9901,1.4239 -2.9196,-1.4876 -4.6449,-4.8736 -4.1323,-8.1101 0.5126,-3.2364 3.1998,-5.9236 6.4362,-6.4362 3.2365,-0.5126 6.6225,1.2127 8.1101,4.1323 1.4876,2.9196 0.8932,6.6731 -1.4239,8.9901 z" inkscape:connector-curvature="0" style="fill:#800080" class="land"/><path id="Cir_IL_001_35_7_2" d="m 1392.53,417.69 c -2.3171,2.317 -6.0705,2.9115 -8.9901,1.4239 -2.9197,-1.4876 -4.6449,-4.8736 -4.1323,-8.1101 0.5126,-3.2364 3.1997,-5.9236 6.4362,-6.4362 3.2364,-0.5126 6.6224,1.2127 8.1101,4.1323 1.4876,2.9196 0.8931,6.6731 -1.4239,8.9901 z" inkscape:connector-curvature="0" style="fill:#800080" class="land"/><path id="Cir_IL_001_35_7_3" d="m 1408.43,315.31 c -2.317,2.317 -6.0704,2.9115 -8.9901,1.4239 -2.9196,-1.4876 -4.6449,-4.8736 -4.1323,-8.1101 0.5126,-3.2364 3.1998,-5.9236 6.4363,-6.4362 3.2364,-0.5126 6.6224,1.2127 8.11,4.1323 1.4877,2.9196 0.8932,6.6731 -1.4239,8.9901 z" inkscape:connector-curvature="0" style="fill:#800080" class="land"/><path id="Cir_IL_001_35_7_4" d="m 1409.53,220.361 c -2.317,2.317 -6.0705,2.9115 -8.9901,1.4239 -2.9196,-1.4876 -4.6449,-4.8737 -4.1323,-8.1101 0.5126,-3.2364 3.1998,-5.9236 6.4362,-6.4362 3.2365,-0.5126 6.6225,1.2127 8.1101,4.1323 1.4876,2.9196 0.8932,6.6731 -1.4239,8.9901 z" inkscape:connector-curvature="0" style="fill:#800080" class="land"/><path id="Cir_IL_001_35_7_6" d="m 1594.13,218.649 c -2.317,2.317 -6.0705,2.9115 -8.9901,1.4239 -2.9196,-1.4876 -4.6449,-4.8737 -4.1323,-8.1101 0.5126,-3.2364 3.1998,-5.9236 6.4362,-6.4362 3.2365,-0.5126 6.6225,1.2127 8.1101,4.1323 1.4876,2.9196 0.8931,6.6731 -1.4239,8.9901 z" inkscape:connector-curvature="0" style="fill:#800080" class="land"/><path id="Cir_IL_001_35_7_7" d="m 1596.43,315.64 c -2.317,2.317 -6.0705,2.9115 -8.9901,1.4239 -2.9196,-1.4876 -4.6449,-4.8736 -4.1323,-8.1101 0.5126,-3.2364 3.1998,-5.9236 6.4362,-6.4362 3.2364,-0.5126 6.6225,1.2127 8.1101,4.1323 1.4876,2.9196 0.8931,6.6731 -1.4239,8.9901 z" inkscape:connector-curvature="0" style="fill:#800080" class="land"/><path id="Cir_IL_001_35_7_8" d="m 1615.83,414.4 c -2.317,2.317 -6.0704,2.9115 -8.9901,1.4239 -2.9196,-1.4876 -4.6449,-4.8737 -4.1323,-8.1101 0.5126,-3.2364 3.1998,-5.9236 6.4362,-6.4362 3.2365,-0.5126 6.6225,1.2127 8.1101,4.1323 1.4876,2.9196 0.8932,6.6731 -1.4239,8.9901 z" inkscape:connector-curvature="0" style="fill:#800080" class="land"/><path id="Cir_IL_001_35_7_9" d="m 1599.03,526.69 c -2.317,2.317 -6.0705,2.9115 -8.9901,1.4239 -2.9196,-1.4876 -4.6449,-4.8737 -4.1323,-8.1101 0.5126,-3.2364 3.1998,-5.9236 6.4362,-6.4362 3.2364,-0.5126 6.6225,1.2127 8.1101,4.1323 1.4876,2.9196 0.8931,6.6731 -1.4239,8.9901 z" inkscape:connector-curvature="0" style="fill:#800080" class="land"/><path id="Cir_IL_001_35_8_2" d="m 1953.33,490.32 c -2.317,2.317 -6.0704,2.9115 -8.9901,1.4239 -2.9196,-1.4876 -4.6449,-4.8736 -4.1323,-8.1101 0.5126,-3.2364 3.1998,-5.9236 6.4362,-6.4362 3.2365,-0.5126 6.6225,1.2127 8.1101,4.1323 1.4877,2.9196 0.8932,6.6731 -1.4239,8.9901 z" inkscape:connector-curvature="0" style="fill:#800080" class="land"/><path id="Cir_IL_001_35_8_10" d="m 2097.53,488.66 c -2.3171,2.317 -6.0705,2.9115 -8.9901,1.4239 -2.9197,-1.4876 -4.6449,-4.8736 -4.1323,-8.1101 0.5126,-3.2364 3.1997,-5.9236 6.4362,-6.4362 3.2364,-0.51261 6.6224,1.2127 8.1101,4.1323 1.4876,2.9196 0.8931,6.6731 -1.4239,8.9901 z" inkscape:connector-curvature="0" style="fill:#800080" class="land"/><path id="Cir_IL_001_35_9_5" d="m 2549.43,261.151 c -2.317,2.317 -6.0705,2.9115 -8.9901,1.4239 -2.9196,-1.4876 -4.6449,-4.8737 -4.1323,-8.1101 0.5126,-3.2364 3.1998,-5.9236 6.4362,-6.4362 3.2364,-0.5126 6.6225,1.2127 8.1101,4.1323 1.4876,2.9196 0.8931,6.6731 -1.4239,8.9901 z" inkscape:connector-curvature="0" style="fill:#800080" class="land"/><path id="Cir_IL_001_35_8_6" d="m 2028.83,262.042 c -2.317,2.317 -6.0705,2.9115 -8.9901,1.4239 -2.9196,-1.4876 -4.6449,-4.8737 -4.1323,-8.1101 0.5126,-3.2364 3.1998,-5.9236 6.4362,-6.4362 3.2364,-0.5126 6.6225,1.2127 8.1101,4.1323 1.4876,2.9196 0.8931,6.6731 -1.4239,8.9901 z" inkscape:connector-curvature="0" style="fill:#800080" class="land"/><path id="Cir_IL_001_35_7_5" d="m 1500.03,266.399 c -2.3171,2.317 -6.0705,2.9115 -8.9901,1.4239 -2.9197,-1.4876 -4.6449,-4.8737 -4.1323,-8.1101 0.5126,-3.2364 3.1997,-5.9236 6.4362,-6.4362 3.2364,-0.5126 6.6224,1.2127 8.1101,4.1323 1.4876,2.9196 0.8931,6.6731 -1.4239,8.9901 z" inkscape:connector-curvature="0" style="fill:#800080" class="land"/><path inkscape:connector-curvature="0" d="m 535.43,664.06 q 0,1.582 -0.64453,2.8272 -0.62988,1.2451 -1.7432,2.0654 -1.2891,0.9668 -2.8418,1.377 -1.5381,0.41015 -3.9111,0.41015 l -9.5215,0 0,-21.812 8.4668,0 q 2.6367,0 3.8525,0.17578 1.2305,0.17578 2.4316,0.77637 1.2451,0.62988 1.8457,1.6992 0.61524,1.0547 0.61524,2.417 0,1.582 -0.83496,2.7978 -0.83496,1.2012 -2.3584,1.875 l 0,0.11719 q 2.1387,0.4248 3.3838,1.7578 1.2598,1.333 1.2598,3.5156 z m -7.207,-8.9648 q 0,-0.54199 -0.27832,-1.084 -0.26367,-0.542 -0.95215,-0.80567 -0.61523,-0.23437 -1.5381,-0.24902 -0.90821,-0.0293 -2.5635,-0.0293 l -0.52734,0 0,4.6143 0.8789,0 q 1.333,0 2.2705,-0.0439 0.9375,-0.0439 1.4795,-0.29296 0.76172,-0.33692 0.9961,-0.86426 0.23437,-0.54199 0.23437,-1.2451 z m 1.377,8.877 q 0,-1.04 -0.41016,-1.5967 -0.39551,-0.57129 -1.3623,-0.84961 -0.65918,-0.19043 -1.8164,-0.20507 -1.1572,-0.0147 -2.417,-0.0147 l -1.2305,0 0,5.4346 0.41015,0 q 2.373,0 3.3984,-0.0147 1.0254,-0.0147 1.8896,-0.38086 0.87891,-0.36621 1.2012,-0.9668 0.33692,-0.61523 0.33692,-1.4062 z" id="path3647" style="fill:#ffffff"/><path inkscape:connector-curvature="0" d="m 555.39,670.74 -15.776,0 0,-21.812 15.776,0 0,4.2188 -10.181,0 0,3.7646 9.4482,0 0,4.2188 -9.4482,0 0,5.3906 10.181,0 0,4.2188 z" id="path3649" style="fill:#ffffff"/><path inkscape:connector-curvature="0" d="m 580.28,670.74 -5.8154,0 -1.5088,-4.4092 -8.0859,0 -1.5088,4.4092 -5.6689,0 8.0566,-21.812 6.4746,0 8.0566,21.812 z m -8.6865,-8.4082 -2.6807,-7.8223 -2.6807,7.8223 5.3613,0 z" id="path3651" style="fill:#ffffff"/><path inkscape:connector-curvature="0" d="m 593.3,671.17 q -2.4316,0 -4.4971,-0.71778 -2.0508,-0.71777 -3.5303,-2.1387 -1.4795,-1.42093 -2.2998,-3.5449 -0.80566,-2.124 -0.80566,-4.9072 0,-2.5928 0.77636,-4.7022 0.77637,-2.1094 2.2559,-3.6182 1.4209,-1.4502 3.5156,-2.2412 2.1094,-0.79102 4.5996,-0.79102 1.377,0 2.4756,0.16114 1.1133,0.14648 2.0508,0.3955 0.98144,0.27832 1.7725,0.62989 0.80566,0.33691 1.4062,0.62988 l 0,5.2881 -0.64453,0 q -0.41016,-0.35157 -1.04,-0.83497 -0.61524,-0.48339 -1.4062,-0.95214 -0.80567,-0.46875 -1.7432,-0.79102 -0.9375,-0.32227 -2.0068,-0.32227 -1.1865,0 -2.2559,0.38086 -1.0693,0.36622 -1.9775,1.2305 -0.86426,0.83496 -1.4062,2.2119 -0.52735,1.377 -0.52735,3.3398 0,2.0508 0.57129,3.4277 0.58594,1.377 1.4648,2.168 0.89355,0.80567 1.9922,1.1572 1.0986,0.33691 2.168,0.33691 1.0254,0 2.0215,-0.30761 1.0107,-0.30762 1.8604,-0.83496 0.71777,-0.42481 1.333,-0.90821 0.61523,-0.4834 1.0107,-0.83496 l 0.58594,0 0,5.2148 q -0.82032,0.36621 -1.5674,0.68847 -0.74707,0.32227 -1.5674,0.55664 -1.0693,0.30762 -2.0068,0.46875 -0.9375,0.16114 -2.5781,0.16114 z" id="path3653" style="fill:#ffffff"/><path inkscape:connector-curvature="0" d="m 626.4,659.84 q 0,5.2148 -2.9883,8.291 -2.9883,3.0615 -8.2617,3.0615 -5.2588,0 -8.2471,-3.0615 -2.9883,-3.0762 -2.9883,-8.291 0,-5.2588 2.9883,-8.3057 2.9883,-3.0615 8.2471,-3.0615 5.2441,0 8.2471,3.0615 3.0029,3.0469 3.0029,8.3057 z m -7.456,5.5225 q 0.82031,-0.99609 1.2158,-2.3438 0.3955,-1.3623 0.3955,-3.1934 0,-1.9629 -0.4541,-3.3398 -0.4541,-1.377 -1.1865,-2.2266 -0.74707,-0.87891 -1.7285,-1.2744 -0.96679,-0.39551 -2.0215,-0.39551 -1.0693,0 -2.0215,0.38086 -0.9375,0.38086 -1.7285,1.2598 -0.73242,0.82031 -1.2012,2.2705 -0.4541,1.4356 -0.4541,3.3398 0,1.9482 0.43945,3.3252 0.4541,1.3623 1.1865,2.2266 0.73242,0.86426 1.7139,1.2744 0.98144,0.41015 2.0654,0.41015 1.08396,0 2.0654,-0.41015 0.98144,-0.42481 1.7139,-1.3037 z" id="path3655" style="fill:#ffffff"/><path inkscape:connector-curvature="0" d="m 650.51,670.74 -5.4199,0 -9.2578,-14.971 0,14.971 -5.1562,0 0,-21.812 6.7236,0 7.9541,12.495 0,-12.495 5.1562,0 0,21.812 z" id="path3657" style="fill:#ffffff"/><path inkscape:connector-curvature="0" d="m 673.56,663.89 q 0,3.2227 -2.7393,5.2441 -2.7246,2.0068 -7.4121,2.0068 -2.71,0 -4.7314,-0.46875 -2.0068,-0.4834 -3.7646,-1.2158 l 0,-5.2295 0.61523,0 q 1.7432,1.3916 3.8965,2.1387 2.168,0.74707 4.1602,0.74707 0.5127,0 1.3477,-0.0879 0.83496,-0.0879 1.3623,-0.29297 0.64454,-0.26367 1.0547,-0.65918 0.42481,-0.39551 0.42481,-1.1719 0,-0.71777 -0.61524,-1.2305 -0.60058,-0.52735 -1.7725,-0.80567 -1.2305,-0.29297 -2.6074,-0.54199 -1.3623,-0.26367 -2.5635,-0.65918 -2.7539,-0.89355 -3.9697,-2.417 -1.2012,-1.5381 -1.2012,-3.8086 0,-3.0469 2.7246,-4.9658 2.7393,-1.9336 7.0312,-1.9336 2.1533,0 4.248,0.4248 2.1094,0.41016 3.6475,1.04 l 0,5.0244 -0.60058,0 q -1.3184,-1.0547 -3.2373,-1.7578 -1.9043,-0.71778 -3.8965,-0.71778 -0.70313,0 -1.4062,0.10254 -0.68848,0.0879 -1.333,0.35156 -0.57129,0.21973 -0.98145,0.67383 -0.41015,0.43945 -0.41015,1.0107 0,0.86426 0.65918,1.333 0.65918,0.4541 2.4902,0.83496 1.2012,0.24903 2.2998,0.4834 1.1133,0.23438 2.3877,0.64453 2.5049,0.82031 3.6914,2.2412 1.2012,1.4062 1.2012,3.6621 z" id="path3659" style="fill:#ffffff"/><path inkscape:connector-curvature="0" d="m 693.06,653.15 -10.034,0 0,4.0576 9.3018,0 0,4.2188 -9.3018,0 0,9.3164 -5.5957,0 0,-21.812 15.63,0 0,4.2188 z" id="path3661" style="fill:#ffffff"/><path inkscape:connector-curvature="0" d="m 708.73,670.74 -12.773,0 0,-3.8672 3.5742,0 0,-14.077 -3.5742,0 0,-3.8672 12.773,0 0,3.8672 -3.5742,0 0,14.077 3.5742,0 0,3.8672 z" id="path3663" style="fill:#ffffff"/><path inkscape:connector-curvature="0" d="m 729.12,670.74 -15.776,0 0,-21.812 15.776,0 0,4.2188 -10.181,0 0,3.7646 9.4482,0 0,4.2188 -9.4482,0 0,5.3906 10.181,0 0,4.2188 z" id="path3665" style="fill:#ffffff"/><path inkscape:connector-curvature="0" d="m 749.59,670.74 -15.732,0 0,-21.812 5.625,0 0,17.593 10.107,0 0,4.2188 z" id="path3667" style="fill:#ffffff"/><path inkscape:connector-curvature="0" d="m 773.57,659.86 q 0,3.0469 -1.3916,5.4639 -1.3916,2.4023 -3.5156,3.6914 -1.5967,0.96679 -3.501,1.3476 -1.9043,0.38086 -4.5117,0.38086 l -7.6904,0 0,-21.812 7.9102,0 q 2.666,0 4.5996,0.4541 1.9336,0.43945 3.252,1.2598 2.2559,1.377 3.5449,3.7207 1.3037,2.3291 1.3037,5.4932 z m -5.8154,-0.0439 q 0,-2.1533 -0.79101,-3.6768 -0.77637,-1.5381 -2.4756,-2.4023 -0.86426,-0.42481 -1.7725,-0.57129 -0.89355,-0.16114 -2.71,-0.16114 l -1.4209,0 0,13.652 1.4209,0 q 2.0068,0 2.9443,-0.17578 0.9375,-0.19043 1.8311,-0.67383 1.5381,-0.87891 2.2559,-2.3438 0.71777,-1.4795 0.71777,-3.6475 z" id="path3669" style="fill:#ffffff"/><path inkscape:connector-curvature="0" d="m 803.85,670.74 -15.732,0 0,-21.812 5.625,0 0,17.593 10.107,0 0,4.2188 z" id="path3671" style="fill:#ffffff"/><path inkscape:connector-curvature="0" d="m 827.37,670.74 -5.8154,0 -1.5088,-4.4092 -8.0859,0 -1.5088,4.4092 -5.669,0 8.0566,-21.812 6.4746,0 8.0566,21.812 z m -8.6865,-8.4082 -2.6807,-7.8223 -2.6807,7.8223 5.3613,0 z" id="path3673" style="fill:#ffffff"/><path inkscape:connector-curvature="0" d="m 850.37,670.74 -5.4199,0 -9.2578,-14.971 0,14.971 -5.1562,0 0,-21.812 6.7236,0 7.9541,12.495 0,-12.495 5.1562,0 0,21.812 z" id="path3675" style="fill:#ffffff"/><path inkscape:connector-curvature="0" d="m 871.74,670.74 -15.776,0 0,-21.812 15.776,0 0,4.2188 -10.181,0 0,3.7646 9.4482,0 0,4.2188 -9.4482,0 0,5.3906 10.181,0 0,4.2188 z" id="path3677" style="fill:#ffffff"/><path inkscape:connector-curvature="0" d="m 1987.03,654.08 q 0,1.582 -0.6445,2.8272 -0.6299,1.2451 -1.7432,2.0654 -1.289,0.9668 -2.8418,1.377 -1.538,0.41016 -3.9111,0.41016 l -9.5215,0 0,-21.812 8.4668,0 q 2.6367,0 3.8526,0.17578 1.2304,0.17578 2.4316,0.77637 1.2451,0.62988 1.8457,1.6992 0.6152,1.0547 0.6152,2.417 0,1.582 -0.8349,2.7978 -0.835,1.2012 -2.3584,1.875 l 0,0.11719 q 2.1387,0.4248 3.3838,1.7578 1.2597,1.333 1.2597,3.5156 z m -7.207,-8.9648 q 0,-0.54199 -0.2783,-1.084 -0.2637,-0.542 -0.9522,-0.80567 -0.6152,-0.23437 -1.538,-0.24902 -0.9083,-0.0293 -2.5635,-0.0293 l -0.5274,0 0,4.6143 0.8789,0 q 1.333,0 2.2705,-0.044 0.9375,-0.0439 1.4795,-0.29297 0.7618,-0.33691 0.9961,-0.86425 0.2344,-0.542 0.2344,-1.2451 z m 1.377,8.877 q 0,-1.04 -0.4102,-1.5967 -0.3955,-0.57129 -1.3623,-0.84961 -0.6592,-0.19043 -1.8164,-0.20507 -1.1572,-0.0147 -2.417,-0.0147 l -1.2305,0 0,5.4346 0.4102,0 q 2.373,0 3.3984,-0.0147 1.0254,-0.0146 1.8897,-0.38086 0.8789,-0.36621 1.2011,-0.9668 0.337,-0.61523 0.337,-1.4062 z" id="path3614" style="fill:#ffffff"/><path inkscape:connector-curvature="0" d="m 2007.03,660.76 -15.776,0 0,-21.812 15.776,0 0,4.2188 -10.181,0 0,3.7646 9.4482,0 0,4.2188 -9.4482,0 0,5.3906 10.181,0 0,4.2188 z" id="path3616" style="fill:#ffffff"/><path inkscape:connector-curvature="0" d="m 2031.83,660.76 -5.8155,0 -1.5088,-4.4092 -8.0859,0 -1.5088,4.4092 -5.6689,0 8.0566,-21.812 6.4746,0 8.0567,21.812 z m -8.6866,-8.4082 -2.6806,-7.8223 -2.6807,7.8223 5.3613,0 z" id="path3618" style="fill:#ffffff"/><path inkscape:connector-curvature="0" d="m 2044.93,661.18 q -2.4316,0 -4.4971,-0.71778 -2.0507,-0.71777 -3.5302,-2.1387 -1.4795,-1.42093 -2.2998,-3.5449 -0.8057,-2.124 -0.8057,-4.9072 0,-2.5928 0.7764,-4.7022 0.7763,-2.1094 2.2558,-3.6182 1.4209,-1.4502 3.5157,-2.2412 2.1093,-0.79102 4.5996,-0.79102 1.3769,0 2.4755,0.16114 1.1133,0.14648 2.0508,0.3955 0.9815,0.27832 1.7725,0.62989 0.8057,0.33691 1.4062,0.62988 l 0,5.2881 -0.6445,0 q -0.4101,-0.35156 -1.04,-0.83496 -0.6153,-0.48339 -1.4063,-0.95214 -0.8056,-0.46875 -1.7431,-0.79102 -0.9375,-0.32227 -2.0069,-0.32227 -1.1865,0 -2.2558,0.38086 -1.0694,0.36621 -1.9776,1.2305 -0.8642,0.83496 -1.4062,2.2119 -0.5274,1.377 -0.5274,3.3398 0,2.0508 0.5713,3.4277 0.586,1.377 1.4649,2.168 0.8935,0.80567 1.9921,1.1572 1.0987,0.33691 2.168,0.33691 1.0254,0 2.0215,-0.30761 1.0107,-0.30762 1.8604,-0.83496 0.7177,-0.42481 1.333,-0.90821 0.6152,-0.4834 1.0107,-0.83496 l 0.5859,0 0,5.2148 q -0.8203,0.36621 -1.5673,0.68847 -0.7471,0.32227 -1.5674,0.55664 -1.0694,0.30762 -2.0069,0.46875 -0.9375,0.16114 -2.5781,0.16114 z" id="path3620" style="fill:#ffffff"/><path inkscape:connector-curvature="0" d="m 2078.03,649.86 q 0,5.2148 -2.9882,8.291 -2.9883,3.0615 -8.2618,3.0615 -5.2588,0 -8.247,-3.0615 -2.9883,-3.0762 -2.9883,-8.291 0,-5.2588 2.9883,-8.3057 2.9882,-3.0615 8.247,-3.0615 5.2442,0 8.2471,3.0615 3.0029,3.0469 3.0029,8.3057 z m -7.456,5.5225 q 0.8203,-0.99609 1.2158,-2.3438 0.3955,-1.3623 0.3955,-3.1934 0,-1.9629 -0.4541,-3.3398 -0.4541,-1.377 -1.1865,-2.2266 -0.7471,-0.87891 -1.7285,-1.2744 -0.9668,-0.3955 -2.0215,-0.3955 -1.0694,0 -2.0215,0.38086 -0.9375,0.38086 -1.7285,1.2598 -0.7324,0.82031 -1.2012,2.2705 -0.4541,1.4356 -0.4541,3.3398 0,1.9482 0.4395,3.3252 0.4541,1.3623 1.1865,2.2266 0.7324,0.86426 1.7139,1.2744 0.9814,0.41015 2.0654,0.41015 1.084,0 2.0654,-0.41015 0.9815,-0.42481 1.7139,-1.3037 z" id="path3622" style="fill:#ffffff"/><path inkscape:connector-curvature="0" d="m 2102.13,660.76 -5.42,0 -9.2578,-14.971 0,14.971 -5.1562,0 0,-21.812 6.7236,0 7.9541,12.495 0,-12.495 5.1563,0 0,21.812 z" id="path3624" style="fill:#ffffff"/><path inkscape:connector-curvature="0" d="m 2125.13,653.9 q 0,3.2227 -2.7393,5.2441 -2.7246,2.0068 -7.4121,2.0068 -2.7099,0 -4.7314,-0.46875 -2.0068,-0.4834 -3.7647,-1.2158 l 0,-5.2295 0.6153,0 q 1.7431,1.3916 3.8965,2.1387 2.1679,0.74707 4.1601,0.74707 0.5127,0 1.3477,-0.0879 0.8349,-0.0879 1.3623,-0.29297 0.6445,-0.26367 1.0547,-0.65918 0.4248,-0.39551 0.4248,-1.1719 0,-0.71777 -0.6153,-1.2305 -0.6005,-0.52735 -1.7724,-0.80567 -1.2305,-0.29297 -2.6074,-0.54199 -1.3624,-0.26367 -2.5635,-0.65918 -2.7539,-0.89356 -3.9697,-2.417 -1.2012,-1.5381 -1.2012,-3.8086 0,-3.0469 2.7246,-4.9658 2.7392,-1.9336 7.0312,-1.9336 2.1534,0 4.2481,0.4248 2.1094,0.41016 3.6474,1.04 l 0,5.0244 -0.6005,0 q -1.3184,-1.0547 -3.2373,-1.7578 -1.9043,-0.71777 -3.8965,-0.71777 -0.7032,0 -1.4063,0.10254 -0.6885,0.0879 -1.333,0.35156 -0.5713,0.21973 -0.9814,0.67383 -0.4102,0.43945 -0.4102,1.0107 0,0.86426 0.6592,1.333 0.6592,0.4541 2.4902,0.83496 1.2012,0.24903 2.2998,0.4834 1.1133,0.23438 2.3877,0.64453 2.5049,0.82031 3.6914,2.2412 1.2012,1.4062 1.2012,3.6621 z" id="path3626" style="fill:#ffffff"/><path inkscape:connector-curvature="0" d="m 2144.63,643.16 -10.034,0 0,4.0576 9.3018,0 0,4.2188 -9.3018,0 0,9.3164 -5.5957,0 0,-21.812 15.63,0 0,4.2188 z" id="path3628" style="fill:#ffffff"/><path inkscape:connector-curvature="0" d="m 2160.33,660.76 -12.773,0 0,-3.8672 3.5742,0 0,-14.077 -3.5742,0 0,-3.8672 12.773,0 0,3.8672 -3.5742,0 0,14.077 3.5742,0 0,3.8672 z" id="path3630" style="fill:#ffffff"/><path inkscape:connector-curvature="0" d="m 2180.73,660.76 -15.776,0 0,-21.812 15.776,0 0,4.2188 -10.181,0 0,3.7646 9.4482,0 0,4.2188 -9.4482,0 0,5.3906 10.181,0 0,4.2188 z" id="path3632" style="fill:#ffffff"/><path inkscape:connector-curvature="0" d="m 2201.23,660.76 -15.732,0 0,-21.812 5.625,0 0,17.593 10.107,0 0,4.2188 z" id="path3634" style="fill:#ffffff"/><path inkscape:connector-curvature="0" d="m 2225.13,649.87 q 0,3.0469 -1.3916,5.4639 -1.3916,2.4023 -3.5156,3.6914 -1.5967,0.96679 -3.501,1.3476 -1.9043,0.38086 -4.5117,0.38086 l -7.6905,0 0,-21.812 7.9102,0 q 2.666,0 4.5996,0.4541 1.9336,0.43945 3.252,1.2598 2.2558,1.377 3.5449,3.7207 1.3037,2.3291 1.3037,5.4932 z m -5.8154,-0.0439 q 0,-2.1533 -0.7911,-3.6768 -0.7763,-1.5381 -2.4755,-2.4024 -0.8643,-0.4248 -1.7725,-0.57128 -0.8936,-0.16114 -2.71,-0.16114 l -1.4209,0 0,13.652 1.4209,0 q 2.0069,0 2.9444,-0.17578 0.9375,-0.19043 1.831,-0.67383 1.5381,-0.87891 2.2559,-2.3438 0.7178,-1.4795 0.7178,-3.6475 z" id="path3636" style="fill:#ffffff"/><path inkscape:connector-curvature="0" d="m 2255.43,660.76 -15.732,0 0,-21.812 5.625,0 0,17.593 10.107,0 0,4.2188 z" id="path3638" style="fill:#ffffff"/><path inkscape:connector-curvature="0" d="m 2278.93,660.76 -5.8154,0 -1.5088,-4.4092 -8.086,0 -1.5087,4.4092 -5.669,0 8.0566,-21.812 6.4747,0 8.0566,21.812 z m -8.6865,-8.4082 -2.6807,-7.8223 -2.6807,7.8223 5.3614,0 z" id="path3640" style="fill:#ffffff"/><path inkscape:connector-curvature="0" d="m 2301.93,660.76 -5.4199,0 -9.2578,-14.971 0,14.971 -5.1562,0 0,-21.812 6.7236,0 7.9541,12.495 0,-12.495 5.1562,0 0,21.812 z" id="path3642" style="fill:#ffffff"/><path inkscape:connector-curvature="0" d="m 2323.33,660.76 -15.776,0 0,-21.812 15.776,0 0,4.2188 -10.181,0 0,3.7646 9.4482,0 0,4.2188 -9.4482,0 0,5.3906 10.181,0 0,4.2188 z" id="path3644" style="fill:#ffffff"/><path style="" inkscape:connector-curvature="0" d="m 414.81,402.79 q 0,3.0469 -1.1133,5.8301 -1.1133,2.7832 -3.0469,4.6875 -2.1094,2.0508 -5.0391,3.1641 -2.9004,1.084 -6.7383,1.084 -3.5742,0 -6.8848,-0.76172 -3.3106,-0.73243 -5.5957,-1.7871 l 0,-6.1816 0.41015,0 q 2.4024,1.5234 5.625,2.6074 3.2227,1.0547 6.3281,1.0547 2.0801,0 4.0137,-0.58594 1.9629,-0.58594 3.4863,-2.0508 1.2891,-1.2598 1.9336,-3.0176 0.67383,-1.7578 0.67383,-4.0723 0,-2.2559 -0.79101,-3.8086 -0.76172,-1.5527 -2.1387,-2.4902 -1.5234,-1.1133 -3.7207,-1.5527 -2.168,-0.46875 -4.8633,-0.46875 -2.5781,0 -4.9805,0.35156 -2.373,0.35157 -4.1016,0.70313 l 0,-22.471 26.25,0 0,5.127 -20.596,0 0,11.602 q 1.2598,-0.11719 2.5781,-0.17578 1.3184,-0.0586 2.2852,-0.0586 3.5449,0 6.2109,0.61523 2.666,0.58594 4.8926,2.1094 2.3438,1.6113 3.6328,4.1602 1.2891,2.5488 1.2891,6.3867 z" id="path3611"/><path style="" inkscape:connector-curvature="0" d="m 971.81,402.49 q 0,6.6504 -4.3945,10.869 -4.3652,4.1895 -10.723,4.1895 -3.2226,0 -5.8594,-0.9961 -2.6367,-0.99609 -4.6582,-2.959 -2.5195,-2.4316 -3.8965,-6.4453 -1.3477,-4.0137 -1.3477,-9.668 0,-5.8008 1.2305,-10.283 1.2598,-4.4824 3.9844,-7.9688 2.5781,-3.3105 6.6504,-5.1562 4.0723,-1.875 9.4922,-1.875 1.7285,0 2.9004,0.14649 1.1719,0.14648 2.373,0.52734 l 0,5.5957 -0.29296,0 q -0.82032,-0.43945 -2.4902,-0.82031 -1.6406,-0.41015 -3.3691,-0.41015 -6.2988,0 -10.049,3.9551 -3.75,3.9258 -4.3652,10.635 2.4609,-1.4941 4.834,-2.2559 2.4024,-0.79102 5.5371,-0.79102 2.7832,0 4.8926,0.52735 2.1387,0.49804 4.3652,2.0508 2.5781,1.7871 3.8672,4.5117 1.3184,2.7246 1.3184,6.6211 z m -5.9473,0.23438 q 0,-2.7246 -0.82032,-4.5117 -0.79101,-1.7871 -2.6367,-3.1055 -1.3476,-0.9375 -2.9883,-1.2305 -1.6406,-0.29297 -3.4277,-0.29297 -2.4902,0 -4.6289,0.58594 -2.1387,0.58594 -4.3945,1.8164 -0.0586,0.64453 -0.0879,1.2598 -0.0293,0.58594 -0.0293,1.4941 0,4.6289 0.9375,7.3242 0.9668,2.666 2.6367,4.2188 1.3477,1.2891 2.9004,1.9043 1.582,0.58593 3.4277,0.58593 4.248,0 6.6797,-2.5781 2.4316,-2.6074 2.4316,-7.4707 z" id="path3608"/><path style="" inkscape:connector-curvature="0" d="m 1515.3,379.55 -19.746,37.09 -6.2695,0 21.006,-38.496 -24.844,0 0,-5.127 29.854,0 0,6.5332 z" id="path3605"/><path style="" inkscape:connector-curvature="0" d="m 2031.5,404.49 q 0,5.6543 -4.4239,9.4043 -4.3945,3.75 -11.074,3.75 -7.0898,0 -11.309,-3.6621 -4.1894,-3.6621 -4.1894,-9.375 0,-3.6328 2.1093,-6.5625 2.1094,-2.959 5.9473,-4.6875 l 0,-0.17578 q -3.5156,-1.875 -5.2148,-4.1016 -1.67,-2.2266 -1.67,-5.5664 0,-4.9219 4.043,-8.2031 4.043,-3.2812 10.283,-3.2812 6.5332,0 10.43,3.1348 3.8965,3.1348 3.8965,7.9688 0,2.959 -1.8457,5.8301 -1.8457,2.8418 -5.4199,4.4531 l 0,0.17578 q 4.1015,1.7578 6.2695,4.3359 2.168,2.5781 2.168,6.5625 z m -6.9434,-21.299 q 0,-3.1348 -2.4316,-4.9805 -2.4024,-1.875 -6.1524,-1.875 -3.6914,0 -6.0644,1.7578 -2.3438,1.7578 -2.3438,4.7461 0,2.1094 1.1719,3.6621 1.2012,1.5234 3.6035,2.7246 1.084,0.52734 3.1055,1.377 2.0507,0.84961 3.9843,1.4062 2.9004,-1.9336 4.0137,-4.0137 1.1133,-2.0801 1.1133,-4.8047 z m 0.9082,21.855 q 0,-2.6953 -1.2012,-4.3066 -1.1718,-1.6406 -4.6289,-3.2812 -1.3769,-0.64453 -3.0176,-1.2012 -1.6406,-0.55664 -4.3652,-1.5527 -2.6367,1.4356 -4.248,3.8965 -1.5821,2.4609 -1.5821,5.5664 0,3.9551 2.7246,6.5332 2.7246,2.5781 6.9141,2.5781 4.2773,0 6.8262,-2.1973 2.5781,-2.1973 2.5781,-6.0352 z" id="path3602"/><path style="" inkscape:connector-curvature="0" d="m 2561.1,392.21 q 0,5.7129 -1.3184,10.371 -1.289,4.6582 -3.9257,7.9395 -2.6661,3.3398 -6.6797,5.1562 -4.0137,1.8164 -9.4336,1.8164 -1.5235,0 -2.8711,-0.17578 -1.3477,-0.14648 -2.4024,-0.49805 l 0,-5.5957 0.293,0 q 0.8496,0.43945 2.4023,0.84961 1.5528,0.38086 3.4571,0.38086 6.4746,0 10.137,-3.8672 3.6914,-3.8965 4.2773,-10.723 -2.7246,1.6406 -5.1269,2.3438 -2.4024,0.70312 -5.2442,0.70312 -2.6953,0 -4.8925,-0.52734 -2.168,-0.52735 -4.3653,-2.0508 -2.5781,-1.7871 -3.8964,-4.541 -1.2891,-2.7539 -1.2891,-6.5918 0,-6.6797 4.3945,-10.869 4.3946,-4.1894 10.723,-4.1894 3.164,0 5.8594,0.99609 2.6953,0.9668 4.7167,2.9297 2.4903,2.4316 3.8379,6.2695 1.3477,3.8086 1.3477,9.873 z m -5.918,-1.2598 q 0,-4.541 -0.9375,-7.2949 -0.9375,-2.7539 -2.5781,-4.2773 -1.377,-1.3184 -2.959,-1.875 -1.582,-0.58594 -3.4277,-0.58594 -4.2188,0 -6.6797,2.6367 -2.4316,2.6367 -2.4316,7.4121 0,2.7832 0.791,4.541 0.791,1.7578 2.666,3.0762 1.3183,0.9082 2.9004,1.2305 1.582,0.29297 3.5156,0.29297 2.2852,0 4.6289,-0.61523 2.3438,-0.61524 4.3945,-1.7871 0.029,-0.61524 0.059,-1.2012 0.059,-0.61524 0.059,-1.5527 z" id="path3599"/><path id="path4609" d="m 0.95,733.39 2540.6,-12.269 399.81,23.094 -2.5988,-277.99 0,-465.53 -2938.1,16.556 0.2625,36.462 -0.0218,195.79 0.16612,166.35 -0.0641,145.24 z" inkscape:connector-curvature="0" style="fill:none;stroke:#000000"/></g>
  <style type="text/css">
        text{
          pointer-events:none;
          -webkit-user-select: none;
          -moz-user-select: none;
          -khtml-user-select: none;
          -ms-user-select: none;
        }
        .land{fill-opacity:1 !important;}
      </style>
  <pattern id="pattern_stripe" width="3" height="4" patternUnits="userSpaceOnUse" patternTransform="rotate(45)">
  <rect width="2" height="4" transform="translate(0,0)" fill="white"/>
</pattern>
</svg>
